<?xml version="1.0" standalone="no"?>
<!DOCTYPE svg PUBLIC "-//W3C//DTD SVG 20010904//EN"
 "http://www.w3.org/TR/2001/REC-SVG-20010904/DTD/svg10.dtd">
<svg version="1.0" xmlns="http://www.w3.org/2000/svg"
 width="417.000000pt" height="626.000000pt" viewBox="0 0 417.000000 626.000000"
 preserveAspectRatio="xMidYMid meet">

<g transform="translate(0.000000,626.000000) scale(0.100000,-0.100000)"
fill="#000000" stroke="none">
<path d="M262 6243 c56 -65 63 -216 14 -317 -15 -31 -49 -74 -77 -100 -48 -43
-138 -86 -179 -86 -11 0 -20 -5 -20 -10 0 -9 75 -8 217 3 18 1 33 -1 33 -5 0
-5 -2 -8 -5 -8 -3 0 -13 -8 -24 -19 -10 -10 -22 -20 -27 -22 -15 -7 -54 -143
-54 -188 0 -35 -3 -42 -16 -37 -9 4 -2 -12 17 -36 82 -108 19 -46 -82 80 l-59
73 0 -200 0 -200 93 -56 c51 -30 100 -55 108 -55 9 0 19 -3 23 -7 3 -4 13 -8
22 -9 12 -2 13 1 4 11 -10 12 -6 13 22 5 41 -12 47 -12 28 0 -13 8 -12 10 3
10 9 0 17 5 17 11 0 8 6 7 17 -2 15 -13 16 -11 9 16 -7 27 -6 28 7 11 13 -17
14 -17 31 -1 11 12 40 20 79 24 60 6 61 7 27 15 l-35 8 28 11 c15 6 27 17 27
24 0 7 3 12 8 10 8 -2 12 6 12 26 0 9 -3 8 -9 -2 -6 -9 -11 2 -15 33 -4 26
-11 44 -16 41 -5 -3 -12 0 -16 6 -4 7 -3 9 4 5 6 -3 13 -2 17 4 3 5 0 10 -8
10 -7 0 -14 7 -14 15 0 8 4 12 9 9 4 -3 8 -1 8 4 0 5 -12 14 -27 21 -20 9 -23
15 -15 23 18 18 14 28 -5 21 -15 -5 -14 -3 2 10 17 14 18 18 5 26 -8 5 -17 8
-20 6 -3 -2 -6 10 -6 27 -1 17 -5 33 -10 37 -11 8 -14 22 -19 88 -2 29 -8 60
-13 69 -15 26 -2 60 29 78 16 9 29 21 29 26 0 15 162 3 205 -15 66 -28 161
-104 180 -143 35 -72 30 -243 -10 -322 -21 -40 -95 -108 -150 -136 -45 -23
-46 -26 -17 -20 59 10 105 38 168 101 70 69 77 91 76 230 -1 102 2 109 46 137
34 21 49 23 167 23 146 0 153 2 248 80 86 70 109 117 115 234 4 86 2 98 -15
114 -19 17 -20 16 -15 -38 3 -35 -3 -87 -18 -148 -25 -107 -54 -148 -138 -189
-58 -28 -206 -34 -222 -8 -8 12 -2 18 25 30 33 14 45 37 28 54 -5 4 -8 11 -8
14 -2 22 -20 60 -37 79 -11 12 -17 26 -14 32 4 5 2 12 -4 16 -5 3 -10 14 -10
24 0 10 -7 24 -15 31 -8 7 -15 23 -15 36 0 13 -4 24 -10 24 -5 0 -10 9 -10 20
0 11 -4 20 -8 20 -12 0 -30 79 -28 123 1 25 -3 37 -11 37 -11 0 -11 5 -3 20 6
12 7 20 1 20 -5 0 -12 -6 -14 -12 -4 -10 -6 -10 -6 -1 -1 9 -82 12 -338 13
-320 0 -336 -1 -321 -17z m538 -2 c0 -10 -54 -31 -81 -31 -12 0 -16 -5 -13
-15 4 -8 10 -13 14 -10 17 10 21 -35 6 -64 -11 -20 -16 -57 -16 -111 0 -65 -4
-87 -20 -110 -18 -26 -24 -28 -117 -32 -105 -6 -130 0 -170 44 -20 21 -22 33
-21 137 l1 115 35 38 34 38 147 -4 c80 -2 155 0 166 4 27 12 35 12 35 1z m-5
-451 c3 -5 1 -10 -4 -10 -6 0 -11 5 -11 10 0 6 2 10 4 10 3 0 8 -4 11 -10z
m18 -33 c14 3 30 -3 41 -16 19 -21 19 -22 -2 -42 -12 -11 -22 -16 -22 -12 0 4
-13 22 -30 39 -16 18 -26 35 -22 39 4 3 8 2 10 -3 1 -5 13 -7 25 -5z"/>
<path d="M3970 6249 c0 -5 5 -7 10 -4 6 3 10 8 10 11 0 2 -4 4 -10 4 -5 0 -10
-5 -10 -11z"/>
<path d="M4136 6245 c-3 -8 -2 -15 3 -15 5 0 12 -10 16 -22 9 -31 19 -5 11 27
-7 28 -21 33 -30 10z"/>
<path d="M4060 6229 c0 -5 5 -7 12 -3 8 5 9 1 4 -12 -5 -14 -4 -16 5 -7 6 6 8
16 5 22 -9 14 -26 14 -26 0z"/>
<path d="M3820 6219 c0 -5 5 -7 10 -4 6 3 10 8 10 11 0 2 -4 4 -10 4 -5 0 -10
-5 -10 -11z"/>
<path d="M4100 6203 c0 -22 12 -43 25 -43 22 0 28 20 8 27 -10 4 -21 11 -25
17 -5 8 -8 7 -8 -1z"/>
<path d="M3070 6160 c0 -5 5 -10 10 -10 6 0 10 5 10 10 0 6 -4 10 -10 10 -5 0
-10 -4 -10 -10z"/>
<path d="M3115 6120 c-3 -5 -1 -10 4 -10 6 0 11 5 11 10 0 6 -2 10 -4 10 -3 0
-8 -4 -11 -10z"/>
<path d="M3680 6060 c0 -5 5 -10 11 -10 5 0 7 5 4 10 -3 6 -8 10 -11 10 -2 0
-4 -4 -4 -10z"/>
<path d="M3690 6031 c0 -5 7 -12 16 -15 24 -9 28 -7 14 9 -14 17 -30 20 -30 6z"/>
<path d="M1165 5790 c-3 -5 -1 -10 4 -10 6 0 11 5 11 10 0 6 -2 10 -4 10 -3 0
-8 -4 -11 -10z"/>
<path d="M0 5765 c0 -8 7 -15 15 -15 19 0 19 16 0 24 -9 3 -15 0 -15 -9z"/>
<path d="M0 5125 c0 -22 9 -29 32 -27 3 1 12 -5 18 -14 11 -12 10 -13 -4 -8
-20 8 -21 -9 -1 -26 12 -10 18 -10 30 0 13 11 14 10 10 -2 -6 -15 52 -68 74
-68 6 0 16 -10 22 -22 12 -24 44 -58 54 -58 9 0 95 -40 95 -44 0 -2 -8 -3 -17
-1 -10 1 -12 0 -5 -2 7 -3 10 -8 7 -13 -6 -10 70 -72 78 -63 9 8 38 -17 31
-28 -3 -5 2 -6 11 -3 11 5 14 2 9 -12 -4 -13 -3 -15 3 -6 6 7 17 10 29 6 27
-10 64 -45 58 -55 -3 -5 3 -6 12 -2 12 5 15 3 9 -6 -5 -8 -19 -11 -39 -7 l-31
6 25 -20 c28 -22 66 -27 54 -7 -5 8 -2 7 9 -2 10 -8 21 -10 25 -6 4 4 1 10 -6
12 -17 6 -15 21 3 25 11 2 10 8 -6 28 -11 15 -17 18 -13 8 11 -32 -11 -19 -24
14 -6 17 -15 29 -18 25 -4 -4 -14 2 -21 13 -8 11 -18 18 -23 15 -4 -3 -14 3
-21 12 -12 14 -12 16 1 8 13 -8 13 -6 1 8 -7 9 -17 15 -21 12 -5 -3 -14 1 -22
8 -22 21 -72 51 -88 52 -16 2 -90 45 -77 45 4 0 22 -7 40 -16 l32 -17 -20 24
c-27 32 -44 46 -82 64 -38 19 -42 32 -10 37 19 3 17 5 -15 21 -21 10 -74 40
-118 67 -44 28 -82 50 -85 50 -3 0 -5 -11 -5 -25z m190 -125 c0 -5 -4 -10 -10
-10 -5 0 -10 5 -10 10 0 6 5 10 10 10 6 0 10 -4 10 -10z m50 -65 c11 -13 8
-13 -18 2 -18 10 -32 22 -32 26 0 11 34 -8 50 -28z m118 -105 c11 -18 10 -19
-13 -8 -13 6 -22 15 -19 19 8 14 18 11 32 -11z m83 -47 c13 -16 12 -17 -3 -4
-17 13 -22 21 -14 21 2 0 10 -8 17 -17z"/>
<path d="M0 5010 c0 -5 5 -10 11 -10 5 0 7 5 4 10 -3 6 -8 10 -11 10 -2 0 -4
-4 -4 -10z"/>
<path d="M1480 4990 c0 -5 5 -10 11 -10 5 0 7 5 4 10 -3 6 -8 10 -11 10 -2 0
-4 -4 -4 -10z"/>
<path d="M20 4945 c6 -16 19 -41 30 -55 l19 -25 -6 25 c-4 13 -10 29 -15 35
-5 5 -15 19 -23 30 -14 18 -14 18 -5 -10z"/>
<path d="M85 4934 c22 -22 47 -44 55 -49 10 -6 9 -4 -2 6 -9 9 -15 18 -13 20
2 2 -15 17 -38 33 l-42 29 40 -39z"/>
<path d="M20 4885 c14 -16 26 -32 27 -34 2 -2 5 -2 8 1 3 2 -10 18 -28 34
l-32 29 25 -30z"/>
<path d="M99 4866 c27 -62 26 -67 -5 -31 -15 17 -10 7 10 -23 42 -60 45 -73
14 -46 -20 16 -20 15 2 -11 14 -16 34 -37 45 -47 11 -9 15 -17 10 -18 -6 0
-47 36 -93 81 -45 44 -82 74 -82 67 0 -8 6 -20 13 -27 10 -11 9 -13 -3 -7 -12
6 -12 5 1 -6 16 -13 15 -43 -2 -32 -5 3 -9 0 -9 -6 0 -7 6 -10 14 -7 8 3 22
-3 31 -13 10 -11 21 -17 26 -14 5 2 17 -3 28 -13 36 -33 51 -44 51 -37 0 3 8
0 17 -7 13 -11 15 -11 9 -1 -7 11 -4 11 12 1 12 -7 18 -17 16 -21 -3 -4 2 -8
11 -8 9 0 13 -4 10 -10 -3 -6 1 -7 9 -4 9 3 16 1 16 -5 0 -6 5 -11 12 -11 7 0
-5 17 -25 38 -38 39 -51 65 -20 41 17 -13 4 6 -62 94 -14 19 -28 48 -31 65 -3
17 -15 39 -26 48 -18 17 -18 16 1 -30z m66 -124 c-3 -7 -1 -11 4 -8 10 6 37
-22 29 -29 -8 -8 -59 36 -53 46 3 4 -2 21 -11 36 -17 28 -16 28 9 -2 15 -16
24 -36 22 -43z m-96 -6 c-3 -3 -11 5 -18 17 -13 21 -12 21 5 5 10 -10 16 -20
13 -22z"/>
<path d="M340 4900 c0 -5 5 -10 11 -10 5 0 7 5 4 10 -3 6 -8 10 -11 10 -2 0
-4 -4 -4 -10z"/>
<path d="M0 4876 c0 -2 8 -10 18 -17 15 -13 16 -12 3 4 -13 16 -21 21 -21 13z"/>
<path d="M2417 4869 c6 -8 13 -25 16 -39 4 -17 5 -15 4 9 -1 21 -8 36 -17 39
-12 4 -13 2 -3 -9z"/>
<path d="M140 4846 c0 -4 11 -24 26 -44 25 -37 25 -37 18 -7 -7 28 -6 29 12
15 18 -14 18 -14 5 3 -8 9 -16 15 -19 12 -3 -3 -14 2 -24 12 -10 9 -18 13 -18
9z"/>
<path d="M62 4804 c10 -10 20 -16 22 -13 3 3 -5 11 -17 18 -21 13 -21 12 -5
-5z"/>
<path d="M2415 4790 c-3 -5 -1 -10 4 -10 6 0 11 5 11 10 0 6 -2 10 -4 10 -3 0
-8 -4 -11 -10z"/>
<path d="M220 4755 c0 -16 8 -30 66 -120 29 -46 98 -120 79 -85 -14 25 -69
105 -77 110 -4 3 -17 27 -28 52 -22 50 -40 69 -40 43z"/>
<path d="M550 4766 c0 -3 14 -12 30 -21 17 -9 30 -13 30 -11 0 3 -13 12 -30
21 -16 9 -30 13 -30 11z"/>
<path d="M2365 4760 c-3 -5 -1 -10 4 -10 6 0 11 5 11 10 0 6 -2 10 -4 10 -3 0
-8 -4 -11 -10z"/>
<path d="M928 4733 c7 -3 16 -2 19 1 4 3 -2 6 -13 5 -11 0 -14 -3 -6 -6z"/>
<path d="M311 4660 c31 -56 76 -110 91 -110 4 0 8 7 8 16 0 8 -4 12 -10 9 -6
-3 -7 1 -4 9 4 11 -2 19 -19 25 -14 6 -33 22 -44 36 -42 60 -52 66 -22 15z"/>
<path d="M490 4690 c8 -5 20 -10 25 -10 6 0 3 5 -5 10 -8 5 -19 10 -25 10 -5
0 -3 -5 5 -10z"/>
<path d="M620 4678 c0 -18 54 -71 63 -61 10 10 8 25 -2 19 -5 -4 -21 8 -35 25
-14 17 -26 24 -26 17z"/>
<path d="M887 4679 c7 -7 15 -10 18 -7 3 3 -2 9 -12 12 -14 6 -15 5 -6 -5z"/>
<path d="M16 4655 c4 -8 11 -15 16 -15 6 0 5 6 -2 15 -7 8 -14 15 -16 15 -2 0
-1 -7 2 -15z"/>
<path d="M936 4645 c10 -8 24 -15 30 -15 6 0 17 -7 24 -15 7 -9 19 -14 27 -11
18 7 16 1 -4 -20 -17 -17 -17 -17 5 -12 14 4 22 2 22 -7 0 -7 18 -15 45 -19
24 -4 47 -12 51 -17 3 -6 12 -8 20 -5 8 3 14 2 14 -3 0 -5 18 -11 40 -15 23
-3 43 -13 46 -21 4 -8 11 -12 16 -9 5 4 20 2 31 -4 101 -47 203 -71 193 -45
-3 7 0 13 6 13 26 0 -11 20 -101 54 -103 40 -105 40 -96 26 3 -5 1 -10 -4 -10
-6 0 -11 6 -11 13 0 8 -11 19 -25 25 -35 16 -43 15 -19 -3 30 -23 16 -19 -114
34 -67 27 -135 52 -152 56 -16 4 -32 11 -35 16 -4 5 -11 9 -18 9 -6 0 -2 -7 9
-15z"/>
<path d="M610 4630 c0 -6 7 -10 15 -10 8 0 15 2 15 4 0 2 -7 6 -15 10 -8 3
-15 1 -15 -4z"/>
<path d="M40 4620 c0 -5 5 -10 11 -10 5 0 7 5 4 10 -3 6 -8 10 -11 10 -2 0 -4
-4 -4 -10z"/>
<path d="M545 4585 c17 -13 36 -22 42 -20 7 2 12 -1 10 -8 -1 -7 6 -11 17 -9
12 2 16 -1 10 -9 -4 -8 -3 -10 5 -5 8 5 5 16 -11 35 -13 15 -25 25 -28 22 -11
-13 -31 -11 -36 4 -4 8 -14 15 -23 15 -11 0 -7 -7 14 -25z"/>
<path d="M950 4605 c0 -2 10 -10 23 -16 20 -11 21 -11 8 4 -13 16 -31 23 -31
12z"/>
<path d="M0 4592 c0 -5 7 -13 16 -16 10 -4 14 -1 12 6 -5 15 -28 23 -28 10z"/>
<path d="M130 4586 c0 -2 8 -10 18 -17 15 -13 16 -12 3 4 -13 16 -21 21 -21
13z"/>
<path d="M430 4583 c0 -7 11 -25 25 -40 13 -15 25 -22 25 -15 0 6 -4 12 -10
12 -5 0 -16 12 -24 28 -8 15 -15 22 -16 15z"/>
<path d="M2240 4576 c0 -2 8 -10 18 -17 15 -13 16 -12 3 4 -13 16 -21 21 -21
13z"/>
<path d="M100 4562 c0 -4 9 -13 20 -20 22 -13 27 -3 8 16 -14 14 -28 16 -28 4z"/>
<path d="M800 4561 c0 -6 4 -13 10 -16 6 -3 7 1 4 9 -7 18 -14 21 -14 7z"/>
<path d="M38 4530 c9 -11 29 -32 45 -47 15 -14 27 -35 27 -45 0 -19 30 -82 52
-108 7 -9 26 -25 42 -38 16 -12 26 -22 23 -22 -13 0 100 -97 126 -108 43 -18
45 -14 9 18 -19 16 -31 34 -27 40 4 6 2 9 -3 8 -14 -4 -108 85 -123 118 -8 16
-30 39 -49 52 -19 13 -34 30 -34 38 2 15 -84 114 -98 114 -4 0 0 -9 10 -20z"/>
<path d="M161 4523 c12 -15 12 -16 -3 -10 -28 10 -22 3 38 -48 l55 -47 -20 36
c-26 46 -26 54 -1 31 11 -10 17 -22 13 -28 -3 -5 -2 -8 3 -5 5 3 17 -5 27 -18
10 -13 13 -24 7 -24 -15 0 107 -107 145 -127 17 -9 49 -31 72 -50 23 -19 46
-32 52 -29 5 4 18 -5 29 -19 11 -14 23 -25 27 -25 4 0 2 6 -4 13 -6 8 -7 18
-3 22 4 5 2 5 -4 2 -7 -4 -17 0 -24 8 -7 8 -16 12 -21 10 -10 -7 -64 72 -73
107 -3 15 -16 32 -27 39 -32 17 -37 0 -8 -24 15 -12 30 -33 34 -47 6 -20 -2
-16 -41 25 -27 28 -49 53 -50 58 -4 20 -6 20 -14 2 -7 -17 -9 -16 -10 10 -1
17 -4 24 -7 17 -4 -10 -8 -10 -19 -1 -16 13 -19 33 -4 24 6 -3 10 -1 10 4 0
14 -17 14 -25 1 -5 -8 -11 -7 -21 1 -7 6 -11 16 -8 21 3 5 -3 12 -15 15 -11 3
-18 10 -14 16 3 5 1 7 -4 4 -6 -4 -16 0 -23 8 -6 7 -18 11 -25 9 -7 -3 -18 4
-25 15 -6 12 -16 21 -22 21 -6 0 -5 -6 3 -17z m39 -38 c13 -14 21 -25 18 -25
-2 0 -15 11 -28 25 -13 14 -21 25 -18 25 2 0 15 -11 28 -25z"/>
<path d="M556 4531 c-3 -4 4 -17 16 -27 21 -19 21 -19 9 4 -13 24 -3 29 19 10
12 -11 12 -10 1 5 -14 18 -36 23 -45 8z"/>
<path d="M847 4511 c6 -25 19 -35 27 -22 3 4 -3 16 -14 26 -18 16 -18 16 -13
-4z"/>
<path d="M623 4508 c-13 -6 -23 -15 -23 -19 0 -9 55 -46 100 -68 22 -11 23
-10 8 2 -10 8 -15 17 -11 21 4 4 0 4 -9 1 -11 -4 -20 1 -28 15 -6 11 -15 18
-20 15 -4 -3 -10 1 -13 7 -2 7 5 18 17 25 26 15 9 16 -21 1z"/>
<path d="M699 4513 c-1 -5 -1 -12 0 -17 1 -5 -5 -6 -13 -3 -9 4 -17 3 -20 -1
-3 -4 4 -8 14 -9 11 -1 22 2 25 7 3 5 13 6 23 3 16 -6 16 -6 0 10 -18 18 -27
21 -29 10z"/>
<path d="M0 4493 c0 -17 39 -76 40 -60 0 13 -28 77 -34 77 -4 0 -6 -8 -6 -17z"/>
<path d="M40 4495 c0 -8 62 -105 67 -105 2 0 -4 15 -13 33 -19 36 -54 84 -54
72z"/>
<path d="M540 4496 c0 -2 7 -7 16 -10 8 -3 12 -2 9 4 -6 10 -25 14 -25 6z"/>
<path d="M1170 4493 c0 -8 51 -35 56 -30 2 2 -10 11 -26 21 -17 9 -30 14 -30
9z"/>
<path d="M543 4465 c0 -8 4 -12 9 -9 4 3 8 1 8 -4 0 -6 8 -13 17 -16 13 -5 11
0 -6 18 -29 30 -28 30 -28 11z"/>
<path d="M2711 4464 c0 -11 3 -14 6 -6 3 7 2 16 -1 19 -3 4 -6 -2 -5 -13z"/>
<path d="M3710 4470 c0 -5 5 -10 11 -10 5 0 7 5 4 10 -3 6 -8 10 -11 10 -2 0
-4 -4 -4 -10z"/>
<path d="M605 4445 c16 -13 31 -22 34 -20 5 6 -41 44 -54 44 -5 0 3 -11 20
-24z"/>
<path d="M830 4460 c0 -7 -7 -9 -17 -5 -14 5 -15 3 -6 -5 7 -8 17 -9 28 -2 12
6 14 11 6 16 -6 4 -11 2 -11 -4z"/>
<path d="M2300 4460 c-9 -6 -10 -10 -3 -10 6 0 15 5 18 10 8 12 4 12 -15 0z"/>
<path d="M0 4322 l0 -143 23 8 c23 9 78 9 192 1 l70 -4 -120 121 c-66 67 -122
118 -124 113 -2 -6 -12 3 -22 19 l-19 28 0 -143z m58 53 c-3 -3 -9 2 -12 12
-6 14 -5 15 5 6 7 -7 10 -15 7 -18z m112 -97 c0 -5 17 -27 37 -50 l37 -43 -38
35 c-21 19 -47 48 -58 63 l-21 29 22 -13 c11 -8 21 -17 21 -21z"/>
<path d="M747 4443 c-4 -3 -7 -11 -7 -17 0 -6 5 -5 12 2 6 6 9 14 7 17 -3 3
-9 2 -12 -2z"/>
<path d="M780 4436 c0 -8 -9 -18 -20 -21 -11 -3 -20 -11 -20 -16 0 -5 11 -2
25 7 21 14 35 44 20 44 -3 0 -5 -6 -5 -14z"/>
<path d="M1386 4422 c-3 -5 1 -9 9 -9 8 0 12 4 9 9 -3 4 -7 8 -9 8 -2 0 -6 -4
-9 -8z"/>
<path d="M390 4411 c0 -6 4 -13 10 -16 6 -3 7 1 4 9 -7 18 -14 21 -14 7z"/>
<path d="M650 4410 c0 -5 5 -10 10 -10 6 0 10 5 10 10 0 6 -4 10 -10 10 -5 0
-10 -4 -10 -10z"/>
<path d="M210 4390 c8 -5 20 -10 25 -10 6 0 3 5 -5 10 -8 5 -19 10 -25 10 -5
0 -3 -5 5 -10z"/>
<path d="M2607 4371 c-3 -15 -1 -18 11 -14 10 4 13 2 8 -5 -4 -7 -3 -12 3 -12
18 0 19 15 1 33 -17 17 -18 17 -23 -2z"/>
<path d="M2680 4350 c0 -5 5 -10 11 -10 5 0 7 5 4 10 -3 6 -8 10 -11 10 -2 0
-4 -4 -4 -10z"/>
<path d="M938 4338 c20 -20 14 -29 -15 -22 -15 4 -34 7 -43 7 -8 0 -18 5 -23
11 -4 6 -5 0 -3 -14 3 -14 5 -27 5 -29 1 -3 6 0 13 7 14 14 48 16 48 3 0 -6
18 -20 40 -32 22 -13 39 -27 39 -33 -3 -27 3 -36 24 -36 18 0 19 2 7 10 -16
11 -14 12 28 13 19 0 26 -4 24 -15 -1 -9 5 -18 13 -22 11 -4 14 -2 10 7 -4 6
0 4 8 -5 8 -10 20 -18 28 -18 7 0 -11 25 -41 55 -29 30 -56 52 -58 50 -3 -3
-11 0 -19 7 -7 6 -16 8 -20 5 -3 -4 -12 -2 -20 4 -9 9 -13 8 -13 0 0 -6 -4
-11 -10 -11 -5 0 -10 6 -10 14 0 15 16 16 38 3 6 -5 12 -4 12 1 0 5 -11 14
-25 20 -14 6 -25 16 -25 22 0 5 -5 10 -12 10 -9 0 -9 -3 0 -12z"/>
<path d="M250 4322 c0 -4 6 -16 13 -26 11 -16 15 -16 19 -4 4 8 -2 20 -13 26
-10 7 -19 8 -19 4z"/>
<path d="M820 4315 c0 -8 4 -15 10 -15 5 0 7 7 4 15 -4 8 -8 15 -10 15 -2 0
-4 -7 -4 -15z"/>
<path d="M527 4296 c20 -26 27 -28 17 -3 -3 8 -12 18 -20 21 -11 4 -10 0 3
-18z"/>
<path d="M2386 4305 c4 -8 7 -15 9 -15 2 0 5 7 9 15 3 9 0 15 -9 15 -9 0 -12
-6 -9 -15z"/>
<path d="M2699 4283 c-5 -48 4 -92 12 -57 3 10 2 37 -1 59 l-6 40 -5 -42z"/>
<path d="M2210 4284 c0 -8 5 -12 10 -9 6 4 8 11 5 16 -9 14 -15 11 -15 -7z"/>
<path d="M1105 4241 c22 -23 58 -57 80 -74 l40 -31 -30 34 c-31 34 -18 33 25
-4 19 -16 18 -14 -5 12 -17 19 -35 30 -44 27 -8 -3 -25 7 -40 22 -14 16 -35
35 -46 43 -11 8 -2 -5 20 -29z"/>
<path d="M2176 4217 c3 -10 9 -15 12 -12 3 3 0 11 -7 18 -10 9 -11 8 -5 -6z"/>
<path d="M2610 4199 c0 -5 5 -7 10 -4 6 3 10 8 10 11 0 2 -4 4 -10 4 -5 0 -10
-5 -10 -11z"/>
<path d="M1065 4170 c-3 -5 -1 -10 4 -10 6 0 11 5 11 10 0 6 -2 10 -4 10 -3 0
-8 -4 -11 -10z"/>
<path d="M2295 4140 c-3 -6 1 -7 9 -4 18 7 21 14 7 14 -6 0 -13 -4 -16 -10z"/>
<path d="M2351 4136 c-7 -8 -8 -17 -3 -20 6 -3 12 3 15 14 6 24 4 25 -12 6z"/>
<path d="M1100 4121 c0 -5 7 -11 15 -15 8 -3 15 -1 15 3 0 5 -7 11 -15 15 -8
3 -15 1 -15 -3z"/>
<path d="M1230 4120 c0 -5 5 -10 11 -10 5 0 7 5 4 10 -3 6 -8 10 -11 10 -2 0
-4 -4 -4 -10z"/>
<path d="M4115 4120 c3 -5 11 -10 16 -10 6 0 7 5 4 10 -3 6 -11 10 -16 10 -6
0 -7 -4 -4 -10z"/>
<path d="M2465 4110 c-3 -6 1 -7 9 -4 18 7 21 14 7 14 -6 0 -13 -4 -16 -10z"/>
<path d="M2530 4084 c0 -14 3 -14 15 -4 8 7 15 14 15 16 0 2 -7 4 -15 4 -8 0
-15 -7 -15 -16z"/>
<path d="M1041 4074 c0 -11 3 -14 6 -6 3 7 2 16 -1 19 -3 4 -6 -2 -5 -13z"/>
<path d="M2275 4070 c-3 -6 1 -7 9 -4 18 7 21 14 7 14 -6 0 -13 -4 -16 -10z"/>
<path d="M758 4043 c7 -3 16 -2 19 1 4 3 -2 6 -13 5 -11 0 -14 -3 -6 -6z"/>
<path d="M2228 4043 c7 -3 16 -2 19 1 4 3 -2 6 -13 5 -11 0 -14 -3 -6 -6z"/>
<path d="M2130 3989 c0 -5 5 -7 10 -4 6 3 10 8 10 11 0 2 -4 4 -10 4 -5 0 -10
-5 -10 -11z"/>
<path d="M1350 3965 c7 -9 15 -13 17 -11 7 7 -7 26 -19 26 -6 0 -6 -6 2 -15z"/>
<path d="M1845 3970 c3 -5 8 -10 11 -10 2 0 4 5 4 10 0 6 -5 10 -11 10 -5 0
-7 -4 -4 -10z"/>
<path d="M4117 3960 c9 -11 19 -17 21 -15 6 6 -18 35 -29 35 -5 0 -1 -9 8 -20z"/>
<path d="M2518 3943 c6 -2 12 -11 12 -19 0 -8 5 -14 10 -14 6 0 10 4 10 8 0
12 -22 32 -34 31 -6 0 -5 -3 2 -6z"/>
<path d="M2465 3890 c-3 -5 -2 -10 4 -10 5 0 13 5 16 10 3 6 2 10 -4 10 -5 0
-13 -4 -16 -10z"/>
<path d="M1040 3840 c0 -5 5 -10 10 -10 6 0 10 5 10 10 0 6 -4 10 -10 10 -5 0
-10 -4 -10 -10z"/>
<path d="M2320 3834 c0 -8 5 -12 10 -9 6 4 8 11 5 16 -9 14 -15 11 -15 -7z"/>
<path d="M1940 3826 c0 -9 5 -16 10 -16 6 0 10 4 10 9 0 6 -4 13 -10 16 -5 3
-10 -1 -10 -9z"/>
<path d="M2300 3802 c0 -12 19 -26 26 -19 2 2 -2 10 -11 17 -9 8 -15 8 -15 2z"/>
<path d="M178 3773 c6 -2 18 -2 25 0 6 3 1 5 -13 5 -14 0 -19 -2 -12 -5z"/>
<path d="M1905 3769 c-4 -6 -5 -12 -2 -15 2 -3 7 2 10 11 7 17 1 20 -8 4z"/>
<path d="M1972 3760 c0 -14 2 -19 5 -12 2 6 2 18 0 25 -3 6 -5 1 -5 -13z"/>
<path d="M2268 3773 c7 -3 16 -2 19 1 4 3 -2 6 -13 5 -11 0 -14 -3 -6 -6z"/>
<path d="M2297 3726 c-4 -10 -1 -13 8 -9 8 3 12 9 9 14 -7 12 -11 11 -17 -5z"/>
<path d="M3710 3716 c0 -9 5 -16 10 -16 6 0 10 4 10 9 0 6 -4 13 -10 16 -5 3
-10 -1 -10 -9z"/>
<path d="M68 3693 c12 -2 22 -11 22 -18 0 -25 18 -25 22 0 5 23 2 25 -31 24
-23 -1 -28 -3 -13 -6z"/>
<path d="M2550 3689 c0 -5 5 -7 10 -4 6 3 10 8 10 11 0 2 -4 4 -10 4 -5 0 -10
-5 -10 -11z"/>
<path d="M3335 3660 c-3 -5 -1 -10 4 -10 6 0 11 5 11 10 0 6 -2 10 -4 10 -3 0
-8 -4 -11 -10z"/>
<path d="M2370 3630 c0 -5 5 -10 11 -10 5 0 7 5 4 10 -3 6 -8 10 -11 10 -2 0
-4 -4 -4 -10z"/>
<path d="M3040 3609 c0 -5 5 -7 10 -4 6 3 10 8 10 11 0 2 -4 4 -10 4 -5 0 -10
-5 -10 -11z"/>
<path d="M2360 3581 c0 -7 -4 -10 -8 -7 -5 3 -9 -2 -9 -10 0 -13 2 -13 16 0 8
9 12 19 8 22 -4 4 -7 2 -7 -5z"/>
<path d="M2495 3557 c-20 -20 -23 -27 -9 -19 23 12 49 40 43 46 -2 2 -17 -10
-34 -27z"/>
<path d="M4036 3562 c-3 -6 -1 -14 5 -17 15 -10 25 3 12 16 -7 7 -13 7 -17 1z"/>
<path d="M2090 3526 c0 -2 8 -10 18 -17 15 -13 16 -12 3 4 -13 16 -21 21 -21
13z"/>
<path d="M2080 3481 c0 -5 7 -11 14 -14 10 -4 13 -1 9 9 -6 15 -23 19 -23 5z"/>
<path d="M2838 3473 c6 -2 18 -2 25 0 6 3 1 5 -13 5 -14 0 -19 -2 -12 -5z"/>
<path d="M2721 3453 c0 -13 -5 -23 -11 -23 -5 0 -10 -5 -10 -12 0 -8 6 -7 16
4 9 8 14 24 11 34 -4 16 -5 15 -6 -3z"/>
<path d="M2811 3454 c0 -11 3 -14 6 -6 3 7 2 16 -1 19 -3 4 -6 -2 -5 -13z"/>
<path d="M2745 3450 c-3 -6 1 -7 9 -4 18 7 21 14 7 14 -6 0 -13 -4 -16 -10z"/>
<path d="M2490 3441 c0 -5 9 -11 21 -14 16 -4 18 -3 8 9 -13 16 -29 19 -29 5z"/>
<path d="M2860 3435 c0 -8 8 -11 20 -8 11 3 20 7 20 8 0 1 -9 5 -20 8 -12 3
-20 0 -20 -8z"/>
<path d="M1181 3424 c0 -11 3 -14 6 -6 3 7 2 16 -1 19 -3 4 -6 -2 -5 -13z"/>
<path d="M1870 3429 c0 -5 5 -7 10 -4 6 3 10 8 10 11 0 2 -4 4 -10 4 -5 0 -10
-5 -10 -11z"/>
<path d="M2395 3430 c-3 -5 -1 -10 4 -10 6 0 11 5 11 10 0 6 -2 10 -4 10 -3 0
-8 -4 -11 -10z"/>
<path d="M2107 3419 c7 -7 15 -10 18 -7 3 3 -2 9 -12 12 -14 6 -15 5 -6 -5z"/>
<path d="M2565 3420 c3 -5 8 -10 11 -10 2 0 4 5 4 10 0 6 -5 10 -11 10 -5 0
-7 -4 -4 -10z"/>
<path d="M2487 3409 c7 -7 15 -10 18 -7 3 3 -2 9 -12 12 -14 6 -15 5 -6 -5z"/>
<path d="M2740 3399 c0 -5 5 -7 10 -4 6 3 10 8 10 11 0 2 -4 4 -10 4 -5 0 -10
-5 -10 -11z"/>
<path d="M2515 3389 c-17 -6 -17 -8 -2 -8 9 -1 17 -7 17 -13 0 -10 3 -9 9 1 6
9 11 10 15 2 4 -6 5 -15 2 -19 -3 -5 8 -6 25 -4 31 5 40 22 12 22 -16 0 -16 2
-3 11 12 8 10 9 -8 4 -13 -4 -28 -2 -35 3 -7 5 -21 6 -32 1z"/>
<path d="M2794 3387 c-3 -9 -2 -23 3 -31 7 -13 10 -13 20 3 10 15 9 22 -2 31
-12 10 -16 9 -21 -3z"/>
<path d="M1580 3380 c-8 -5 -11 -13 -6 -17 5 -4 11 -3 13 3 2 7 14 10 26 7 18
-4 19 -3 7 6 -18 13 -21 13 -40 1z"/>
<path d="M1626 3321 c-3 -5 1 -11 9 -14 9 -4 12 -1 8 9 -6 16 -10 17 -17 5z"/>
<path d="M2514 3314 c3 -9 6 -18 6 -20 0 -2 5 -4 11 -4 5 0 7 5 4 10 -3 6 1
10 10 10 9 0 13 5 10 10 -3 6 -15 10 -27 10 -14 0 -18 -5 -14 -16z"/>
<path d="M2617 3308 c-9 -31 -2 -33 11 -3 6 14 8 25 3 25 -5 0 -11 -10 -14
-22z"/>
<path d="M2820 3290 c0 -5 5 -10 10 -10 6 0 10 5 10 10 0 6 -4 10 -10 10 -5 0
-10 -4 -10 -10z"/>
<path d="M2710 3136 c0 -2 7 -6 15 -10 8 -3 15 -1 15 4 0 6 -7 10 -15 10 -8 0
-15 -2 -15 -4z"/>
<path d="M3460 3100 c0 -5 5 -10 10 -10 6 0 10 5 10 10 0 6 -4 10 -10 10 -5 0
-10 -4 -10 -10z"/>
<path d="M2395 3090 c3 -5 10 -10 16 -10 5 0 9 5 9 10 0 6 -7 10 -16 10 -8 0
-12 -4 -9 -10z"/>
<path d="M2200 3050 c-8 -5 -12 -12 -9 -15 4 -3 12 1 19 10 14 17 11 19 -10 5z"/>
<path d="M2860 3039 c0 -5 5 -7 10 -4 6 3 10 8 10 11 0 2 -4 4 -10 4 -5 0 -10
-5 -10 -11z"/>
<path d="M3275 3040 c-8 -13 3 -30 21 -30 18 0 18 14 0 29 -10 8 -16 9 -21 1z"/>
<path d="M4090 2980 c0 -5 5 -10 10 -10 6 0 10 5 10 10 0 6 -4 10 -10 10 -5 0
-10 -4 -10 -10z"/>
<path d="M2314 2963 c4 -8 2 -13 -5 -13 -16 0 -3 -13 16 -16 20 -3 19 10 -2
27 -11 10 -14 10 -9 2z"/>
<path d="M302 2931 c-18 -16 -32 -38 -32 -51 0 -16 3 -20 13 -13 22 18 67 21
76 6 4 -8 24 -16 44 -17 20 -2 44 -9 52 -16 9 -7 18 -10 21 -7 8 8 37 -23 51
-56 7 -15 19 -27 27 -27 8 0 23 -10 33 -23 10 -13 23 -22 28 -20 12 4 59 -142
50 -157 -3 -5 -3 -10 2 -10 9 0 12 -26 13 -110 2 -60 -7 -100 -21 -100 -5 0
-9 -9 -9 -19 0 -11 -4 -22 -10 -26 -5 -3 -7 -12 -4 -20 4 -9 -3 -16 -19 -20
-18 -5 -24 -12 -20 -22 3 -8 0 -19 -7 -23 -17 -10 -5 -40 16 -40 30 0 85 33
98 59 7 14 11 43 9 64 -3 25 1 45 10 55 49 57 58 120 26 184 -16 32 -19 50
-14 88 8 61 -14 113 -56 130 -32 14 -49 37 -49 67 0 10 -14 33 -32 52 -30 32
-34 33 -83 27 -41 -5 -56 -2 -65 10 -20 24 -62 50 -91 57 -20 5 -33 0 -57 -22z"/>
<path d="M3250 2930 c0 -5 5 -10 11 -10 5 0 7 -4 4 -10 -3 -5 -1 -10 4 -10 6
0 11 9 11 20 0 11 -7 20 -15 20 -8 0 -15 -4 -15 -10z"/>
<path d="M1155 2920 c-3 -5 -1 -10 4 -10 6 0 11 5 11 10 0 6 -2 10 -4 10 -3 0
-8 -4 -11 -10z"/>
<path d="M150 2903 c-35 -14 -53 -63 -23 -63 10 0 12 7 8 19 -9 29 21 34 46 8
17 -17 21 -18 16 -4 -5 13 -1 17 18 17 13 0 26 4 30 9 3 6 -4 8 -15 6 -11 -2
-20 0 -20 6 0 10 -36 11 -60 2z"/>
<path d="M2351 2894 c0 -11 3 -14 6 -6 3 7 2 16 -1 19 -3 4 -6 -2 -5 -13z"/>
<path d="M3966 2902 c-3 -4 8 -13 24 -19 22 -8 29 -8 27 0 -4 23 -40 36 -51
19z"/>
<path d="M2361 2854 c0 -11 3 -14 6 -6 3 7 2 16 -1 19 -3 4 -6 -2 -5 -13z"/>
<path d="M1040 2826 c0 -2 8 -10 18 -17 15 -13 16 -12 3 4 -13 16 -21 21 -21
13z"/>
<path d="M3867 2819 c7 -7 15 -10 18 -7 3 3 -2 9 -12 12 -14 6 -15 5 -6 -5z"/>
<path d="M460 2811 c0 -6 4 -13 10 -16 6 -3 7 1 4 9 -7 18 -14 21 -14 7z"/>
<path d="M245 2800 c3 -5 8 -10 11 -10 2 0 4 5 4 10 0 6 -5 10 -11 10 -5 0 -7
-4 -4 -10z"/>
<path d="M968 2793 c7 -3 16 -2 19 1 4 3 -2 6 -13 5 -11 0 -14 -3 -6 -6z"/>
<path d="M1 2774 c0 -11 3 -14 6 -6 3 7 2 16 -1 19 -3 4 -6 -2 -5 -13z"/>
<path d="M3603 2764 c-6 -16 15 -37 29 -28 4 3 8 14 8 25 0 23 -28 26 -37 3z"/>
<path d="M2080 2750 c0 -5 5 -10 11 -10 5 0 7 5 4 10 -3 6 -8 10 -11 10 -2 0
-4 -4 -4 -10z"/>
<path d="M555 2720 c-3 -5 -2 -10 4 -10 5 0 13 5 16 10 3 6 2 10 -4 10 -5 0
-13 -4 -16 -10z"/>
<path d="M3907 2703 c-8 -14 6 -31 28 -35 14 -2 20 3 20 17 0 21 -38 34 -48
18z"/>
<path d="M77 2659 c-20 -17 -34 -35 -31 -40 9 -15 -6 -47 -24 -52 -16 -4 -16
-5 1 -6 9 0 17 -6 17 -12 0 -6 -8 -8 -19 -4 -16 5 -18 -1 -19 -61 -1 -52 2
-65 12 -61 11 4 13 -3 10 -31 -1 -20 -8 -38 -13 -40 -16 -5 -13 -22 4 -22 8 0
15 -4 15 -10 0 -5 -7 -7 -15 -4 -18 7 -19 3 -4 -30 7 -14 16 -23 20 -20 5 3 6
-2 3 -10 -3 -9 -14 -16 -23 -17 -10 0 -11 -2 -3 -6 6 -2 10 -8 7 -12 -2 -5 13
-6 34 -4 20 2 48 -1 62 -6 23 -9 23 -10 2 -10 -12 -1 -24 -4 -27 -9 -7 -12 22
-45 33 -37 6 3 11 -2 11 -12 0 -11 5 -24 12 -31 9 -9 8 -12 -4 -12 -9 0 -19 5
-21 10 -3 6 -4 5 -3 -2 4 -19 46 -23 46 -5 0 9 -6 17 -12 20 -10 3 -10 9 0 26
14 24 16 34 4 27 -4 -2 -14 0 -22 6 -13 8 -12 9 1 5 12 -4 18 2 22 19 4 21 1
24 -28 24 -21 0 -35 6 -39 16 -8 21 -8 24 5 24 5 0 7 -4 4 -10 -3 -5 -1 -11 4
-11 6 -1 14 -2 19 -3 4 -1 26 -6 50 -10 44 -8 47 -12 33 -35 -8 -12 -12 -12
-25 -2 -13 11 -16 11 -16 -2 0 -23 45 -27 59 -5 10 16 15 17 27 7 8 -7 13 -18
10 -26 -4 -8 -1 -11 5 -8 6 4 8 14 5 22 -8 19 25 47 36 31 3 -6 5 7 5 30 -2
29 -6 41 -14 37 -7 -2 -13 0 -13 5 0 13 -21 9 -37 -7 -19 -17 -16 -26 7 -20
21 6 28 -9 7 -16 -22 -7 -48 5 -43 20 3 8 1 23 -5 35 -9 17 -8 19 13 18 13 -1
30 -2 38 -1 13 1 13 2 0 11 -9 6 -11 13 -5 18 6 4 11 20 13 36 3 22 0 27 -12
23 -9 -4 -16 -2 -16 3 0 6 7 10 15 10 8 0 15 4 15 9 0 5 -10 7 -22 3 -17 -4
-20 -2 -15 11 8 21 -7 30 -35 21 -21 -6 -21 -7 -3 -20 10 -8 15 -14 10 -14 -4
0 0 -10 11 -21 14 -16 15 -23 7 -26 -7 -3 -13 -15 -13 -29 0 -16 -4 -22 -14
-18 -9 3 -12 12 -9 21 4 9 -1 22 -12 29 -18 14 -18 14 1 29 18 13 18 14 1 15
-10 0 -27 5 -38 11 -28 15 -6 41 27 33 13 -3 24 -2 24 3 0 6 -13 10 -30 11
-16 0 -30 -4 -30 -9 0 -5 -5 -9 -11 -9 -18 0 -5 45 15 48 12 3 16 0 11 -8 -5
-9 -1 -9 16 1 15 7 19 14 11 17 -6 2 -10 8 -6 13 3 5 -4 9 -16 9 -26 0 -46 46
-29 67 7 8 17 12 24 9 6 -2 12 2 12 10 0 8 -10 14 -23 14 -17 0 -24 -8 -29
-31 -5 -21 -11 -29 -22 -25 -8 3 -17 6 -19 6 -2 0 -4 5 -4 10 0 6 7 10 16 10
8 0 12 5 9 11 -4 6 3 21 16 35 31 34 19 30 -24 -7z m35 -101 c13 -19 12 -24
-5 -41 -10 -10 -22 -16 -25 -12 -4 3 -1 10 6 14 10 6 10 15 3 34 -13 32 1 36
21 5z m-52 -38 c0 -5 -2 -10 -4 -10 -3 0 -8 5 -11 10 -3 6 -1 10 4 10 6 0 11
-4 11 -10z m54 -102 c-4 -6 -10 -5 -15 3 -14 22 -10 33 6 19 8 -7 12 -17 9
-22z m-25 -112 c0 -7 -2 -6 -6 2 -2 6 -8 10 -12 8 -4 -3 -8 1 -8 9 0 11 4 12
14 4 7 -6 13 -17 12 -23z m81 14 c0 -5 -2 -10 -4 -10 -3 0 -8 5 -11 10 -3 6
-1 10 4 10 6 0 11 -4 11 -10z m-111 -91 c-19 -12 -24 -2 -8 17 9 11 14 13 17
4 3 -7 -2 -16 -9 -21z m211 -3 c0 -3 -4 -8 -10 -11 -5 -3 -10 -1 -10 4 0 6 5
11 10 11 6 0 10 -2 10 -4z"/>
<path d="M2800 2676 c0 -2 7 -6 15 -10 8 -3 15 -1 15 4 0 6 -7 10 -15 10 -8 0
-15 -2 -15 -4z"/>
<path d="M4012 2605 c-7 -8 -8 -15 -3 -15 5 0 12 -8 16 -18 5 -19 53 -47 63
-38 3 3 -4 9 -14 13 -25 9 -36 26 -22 34 14 9 3 39 -14 39 -7 -1 -19 -7 -26
-15z"/>
<path d="M5 2599 c-11 -17 0 -20 21 -4 17 13 17 14 2 15 -9 0 -20 -5 -23 -11z"/>
<path d="M2430 2601 c0 -17 18 -21 24 -6 3 9 0 15 -9 15 -8 0 -15 -4 -15 -9z"/>
<path d="M3731 2568 c15 -34 46 -43 55 -16 7 23 -16 44 -27 26 -6 -9 -12 -8
-24 2 -15 12 -15 11 -4 -12z"/>
<path d="M3450 2569 c0 -5 5 -7 10 -4 6 3 10 8 10 11 0 2 -4 4 -10 4 -5 0 -10
-5 -10 -11z"/>
<path d="M185 2560 c-3 -5 -1 -10 4 -10 6 0 11 5 11 10 0 6 -2 10 -4 10 -3 0
-8 -4 -11 -10z"/>
<path d="M3830 2539 c0 -5 5 -7 10 -4 6 3 10 8 10 11 0 2 -4 4 -10 4 -5 0 -10
-5 -10 -11z"/>
<path d="M232 2535 c3 -3 16 -8 28 -10 12 -2 20 -1 16 2 -4 4 -16 8 -28 10
-12 2 -19 1 -16 -2z"/>
<path d="M4140 2525 c0 -8 7 -15 15 -15 8 0 15 7 15 15 0 8 -7 15 -15 15 -8 0
-15 -7 -15 -15z"/>
<path d="M246 2494 c-9 -23 -2 -28 13 -10 7 8 8 17 3 20 -6 3 -13 -1 -16 -10z"/>
<path d="M3635 2470 c-3 -5 -1 -10 4 -10 6 0 11 5 11 10 0 6 -2 10 -4 10 -3 0
-8 -4 -11 -10z"/>
<path d="M3896 2464 c-4 -10 -1 -14 6 -12 15 5 23 28 10 28 -5 0 -13 -7 -16
-16z"/>
<path d="M3247 2444 c-8 -8 1 -24 14 -24 5 0 9 7 9 15 0 15 -12 20 -23 9z"/>
<path d="M3651 2404 c0 -11 3 -14 6 -6 3 7 2 16 -1 19 -3 4 -6 -2 -5 -13z"/>
<path d="M3831 2411 c-8 -5 -9 -11 -3 -15 5 -3 15 1 22 9 14 16 3 20 -19 6z"/>
<path d="M3936 2403 c-6 -14 -5 -15 5 -6 7 7 10 15 7 18 -3 3 -9 -2 -12 -12z"/>
<path d="M2990 2396 c0 -3 9 -10 20 -16 11 -6 20 -8 20 -6 0 3 -9 10 -20 16
-11 6 -20 8 -20 6z"/>
<path d="M4072 2391 c-11 -7 -10 -10 3 -15 23 -9 25 -8 25 9 0 17 -9 19 -28 6z"/>
<path d="M3091 2387 c2 -1 13 -9 24 -17 19 -14 19 -14 6 3 -7 9 -18 17 -24 17
-6 0 -8 -1 -6 -3z"/>
<path d="M0 2369 c0 -5 5 -7 10 -4 5 3 10 8 10 11 0 2 -4 4 -10 4 -5 0 -10 -5
-10 -11z"/>
<path d="M300 2340 c0 -5 5 -10 11 -10 5 0 7 5 4 10 -3 6 -8 10 -11 10 -2 0
-4 -4 -4 -10z"/>
<path d="M2975 2340 c3 -5 8 -10 11 -10 2 0 4 5 4 10 0 6 -5 10 -11 10 -5 0
-7 -4 -4 -10z"/>
<path d="M3750 2341 c0 -6 4 -13 10 -16 6 -3 7 1 4 9 -7 18 -14 21 -14 7z"/>
<path d="M4085 2340 c-3 -5 -1 -10 4 -10 6 0 11 5 11 10 0 6 -2 10 -4 10 -3 0
-8 -4 -11 -10z"/>
<path d="M3956 2303 c-6 -14 -5 -15 5 -6 7 7 10 15 7 18 -3 3 -9 -2 -12 -12z"/>
<path d="M4045 2290 c-3 -5 1 -10 9 -10 9 0 16 5 16 10 0 6 -4 10 -9 10 -6 0
-13 -4 -16 -10z"/>
<path d="M3844 2252 c22 -26 36 -28 36 -7 0 8 -4 15 -9 15 -5 0 -18 3 -28 7
-17 6 -17 5 1 -15z"/>
<path d="M3934 2240 c0 -13 4 -16 10 -10 7 7 7 13 0 20 -6 6 -10 3 -10 -10z"/>
<path d="M340 2228 c0 -9 7 -19 16 -22 25 -10 27 -1 4 19 -17 15 -20 16 -20 3z"/>
<path d="M3013 2195 c0 -8 4 -15 9 -15 4 0 8 4 8 9 0 6 -4 12 -8 15 -5 3 -9
-1 -9 -9z"/>
<path d="M1 2184 c0 -11 3 -14 6 -6 3 7 2 16 -1 19 -3 4 -6 -2 -5 -13z"/>
<path d="M315 2183 c-10 -23 -13 -53 -6 -53 3 0 13 4 21 10 12 8 12 10 -3 16
-14 5 -15 9 -6 20 7 8 10 17 7 20 -3 3 -9 -3 -13 -13z"/>
<path d="M26 2171 c-7 -10 18 -34 26 -25 3 2 8 -3 12 -12 4 -12 2 -15 -9 -11
-8 4 -17 1 -21 -5 -4 -6 -3 -8 4 -4 5 3 12 0 15 -6 8 -21 27 5 21 28 -6 23
-40 48 -48 35z"/>
<path d="M520 2146 c7 -21 6 -24 -8 -22 -9 2 -26 0 -37 -5 -18 -7 -18 -8 5 -9
14 -1 20 -4 13 -6 -7 -3 -9 -12 -6 -20 3 -8 0 -14 -6 -14 -6 0 -11 8 -11 18 0
10 -3 13 -8 6 -4 -6 -14 -13 -22 -16 -25 -9 31 -26 59 -18 14 3 38 22 54 42
27 34 28 38 13 53 -14 15 -16 15 -16 1 0 -9 -4 -16 -10 -16 -5 0 -7 7 -4 15 4
9 0 15 -10 15 -12 0 -14 -5 -6 -24z"/>
<path d="M3446 2157 c3 -8 13 -14 22 -13 25 4 21 20 -5 24 -17 3 -21 -1 -17
-11z"/>
<path d="M3335 2130 c-7 -11 2 -30 13 -30 4 0 8 9 8 20 0 21 -11 26 -21 10z"/>
<path d="M4155 2120 c3 -5 8 -10 11 -10 2 0 4 5 4 10 0 6 -5 10 -11 10 -5 0
-7 -4 -4 -10z"/>
<path d="M210 2109 c0 -5 5 -7 10 -4 6 3 10 8 10 11 0 2 -4 4 -10 4 -5 0 -10
-5 -10 -11z"/>
<path d="M276 2085 c4 -8 10 -15 14 -15 5 0 16 -7 24 -16 18 -17 36 -11 36 12
0 8 -4 12 -10 9 -5 -3 -10 -1 -10 5 0 6 -4 8 -10 5 -5 -3 -19 -1 -30 5 -16 9
-18 8 -14 -5z"/>
<path d="M3076 2087 c3 -10 9 -15 12 -12 3 3 0 11 -7 18 -10 9 -11 8 -5 -6z"/>
<path d="M905 2060 c3 -5 8 -10 11 -10 2 0 4 5 4 10 0 6 -5 10 -11 10 -5 0 -7
-4 -4 -10z"/>
<path d="M3440 2039 c0 -5 5 -7 10 -4 6 3 10 8 10 11 0 2 -4 4 -10 4 -5 0 -10
-5 -10 -11z"/>
<path d="M3725 2020 c4 -6 11 -8 16 -5 14 9 11 15 -7 15 -8 0 -12 -5 -9 -10z"/>
<path d="M4105 1970 c3 -5 11 -10 16 -10 6 0 7 5 4 10 -3 6 -11 10 -16 10 -6
0 -7 -4 -4 -10z"/>
<path d="M2600 1966 c0 -2 7 -7 16 -10 8 -3 12 -2 9 4 -6 10 -25 14 -25 6z"/>
<path d="M2791 1944 c0 -11 3 -14 6 -6 3 7 2 16 -1 19 -3 4 -6 -2 -5 -13z"/>
<path d="M2526 1923 c-6 -14 -5 -15 5 -6 7 7 10 15 7 18 -3 3 -9 -2 -12 -12z"/>
<path d="M2500 1894 c0 -8 5 -12 10 -9 6 4 8 11 5 16 -9 14 -15 11 -15 -7z"/>
<path d="M4115 1860 c4 -6 11 -8 16 -5 14 9 11 15 -7 15 -8 0 -12 -5 -9 -10z"/>
<path d="M2520 1856 c0 -2 7 -7 16 -10 8 -3 12 -2 9 4 -6 10 -25 14 -25 6z"/>
<path d="M2960 1849 c0 -5 5 -7 10 -4 6 3 10 8 10 11 0 2 -4 4 -10 4 -5 0 -10
-5 -10 -11z"/>
<path d="M1911 1804 c0 -11 3 -14 6 -6 3 7 2 16 -1 19 -3 4 -6 -2 -5 -13z"/>
<path d="M3950 1809 c0 -5 5 -7 10 -4 6 3 10 8 10 11 0 2 -4 4 -10 4 -5 0 -10
-5 -10 -11z"/>
<path d="M3965 1770 c-3 -5 -1 -10 4 -10 6 0 11 5 11 10 0 6 -2 10 -4 10 -3 0
-8 -4 -11 -10z"/>
<path d="M2602 1720 c0 -14 2 -19 5 -12 2 6 2 18 0 25 -3 6 -5 1 -5 -13z"/>
<path d="M3581 1731 c-8 -5 -10 -14 -7 -20 9 -13 33 -15 40 -2 9 14 -18 31
-33 22z"/>
<path d="M4065 1730 c3 -5 8 -10 11 -10 2 0 4 5 4 10 0 6 -5 10 -11 10 -5 0
-7 -4 -4 -10z"/>
<path d="M1221 1704 c0 -11 3 -14 6 -6 3 7 2 16 -1 19 -3 4 -6 -2 -5 -13z"/>
<path d="M2647 1703 c-4 -3 -7 -11 -7 -17 0 -6 5 -5 12 2 6 6 9 14 7 17 -3 3
-9 2 -12 -2z"/>
<path d="M2285 1692 c3 -3 38 -7 77 -9 39 -2 69 -1 66 2 -3 3 -37 7 -77 9 -40
2 -70 1 -66 -2z"/>
<path d="M2457 1678 c-7 -4 9 -8 36 -8 26 0 47 3 47 8 0 9 -68 9 -83 0z"/>
<path d="M3070 1674 c0 -8 5 -12 10 -9 6 3 10 10 10 16 0 5 -4 9 -10 9 -5 0
-10 -7 -10 -16z"/>
<path d="M2555 1670 c3 -5 11 -10 16 -10 6 0 7 5 4 10 -3 6 -11 10 -16 10 -6
0 -7 -4 -4 -10z"/>
<path d="M2590 1670 c0 -8 50 -24 56 -18 2 2 -10 9 -26 15 -17 6 -30 8 -30 3z"/>
<path d="M2750 1636 c0 -2 7 -6 15 -10 8 -3 15 -1 15 4 0 6 -7 10 -15 10 -8 0
-15 -2 -15 -4z"/>
<path d="M3260 1630 c0 -5 4 -10 9 -10 6 0 13 5 16 10 3 6 -1 10 -9 10 -9 0
-16 -4 -16 -10z"/>
<path d="M2335 1620 c3 -5 8 -10 11 -10 2 0 4 5 4 10 0 6 -5 10 -11 10 -5 0
-7 -4 -4 -10z"/>
<path d="M2390 1621 c0 -6 -7 -11 -15 -11 -8 0 -15 -4 -15 -8 0 -9 42 -8 58 2
7 4 12 13 11 19 0 8 -2 8 -6 -1 -4 -10 -8 -10 -19 -1 -10 8 -14 8 -14 0z"/>
<path d="M2445 1620 c3 -5 8 -10 11 -10 2 0 4 5 4 10 0 6 -5 10 -11 10 -5 0
-7 -4 -4 -10z"/>
<path d="M2573 1599 c6 -10 16 -15 21 -12 6 4 5 8 -2 11 -7 2 -10 7 -8 11 3 4
-1 8 -8 8 -11 0 -12 -4 -3 -18z"/>
<path d="M1268 1603 c7 -3 16 -2 19 1 4 3 -2 6 -13 5 -11 0 -14 -3 -6 -6z"/>
<path d="M3275 1590 c3 -5 8 -10 11 -10 2 0 4 5 4 10 0 6 -5 10 -11 10 -5 0
-7 -4 -4 -10z"/>
<path d="M3097 1572 c-24 -5 -18 -33 10 -43 28 -10 35 0 20 27 -7 11 -20 18
-30 16z"/>
<path d="M2722 1558 c3 -7 14 -14 26 -16 16 -3 20 1 16 12 -7 19 -48 22 -42 4z"/>
<path d="M3200 1560 c0 -5 7 -7 15 -4 8 4 15 8 15 10 0 2 -7 4 -15 4 -8 0 -15
-4 -15 -10z"/>
<path d="M2480 1535 c0 -8 7 -15 16 -15 15 0 15 -2 0 -25 -23 -35 -20 -38 10
-9 14 14 24 33 22 42 -4 20 -48 27 -48 7z"/>
<path d="M3184 1528 c-9 -14 35 -47 58 -45 21 1 22 6 5 28 -15 20 -55 30 -63
17z"/>
<path d="M2955 1510 c10 -11 20 -18 23 -15 7 6 -18 35 -31 35 -5 0 -2 -9 8
-20z"/>
<path d="M2430 1500 c0 -5 4 -10 9 -10 6 0 13 5 16 10 3 6 -1 10 -9 10 -9 0
-16 -4 -16 -10z"/>
<path d="M3320 1500 c0 -5 5 -10 11 -10 5 0 7 5 4 10 -3 6 -8 10 -11 10 -2 0
-4 -4 -4 -10z"/>
<path d="M2360 1481 c0 -5 9 -11 20 -14 13 -3 18 -11 14 -21 -5 -13 -2 -13 20
-3 19 9 22 15 13 23 -16 15 -67 27 -67 15z"/>
<path d="M2695 1480 c3 -5 8 -10 11 -10 2 0 4 5 4 10 0 6 -5 10 -11 10 -5 0
-7 -4 -4 -10z"/>
<path d="M3985 1480 c-3 -5 3 -10 14 -10 12 0 21 5 21 10 0 6 -6 10 -14 10 -8
0 -18 -4 -21 -10z"/>
<path d="M1894 1461 c3 -5 17 -11 30 -13 17 -4 23 -1 19 9 -3 7 -16 13 -30 13
-13 0 -22 -4 -19 -9z"/>
<path d="M3100 1451 c0 -5 5 -13 10 -16 6 -3 10 -2 10 4 0 5 -4 13 -10 16 -5
3 -10 2 -10 -4z"/>
<path d="M2656 1432 c-3 -6 1 -13 10 -16 23 -9 28 -2 10 13 -8 7 -17 8 -20 3z"/>
<path d="M3560 1430 c0 -5 5 -10 11 -10 5 0 7 5 4 10 -3 6 -8 10 -11 10 -2 0
-4 -4 -4 -10z"/>
<path d="M171 1414 c0 -11 3 -14 6 -6 3 7 2 16 -1 19 -3 4 -6 -2 -5 -13z"/>
<path d="M3790 1410 c0 -5 7 -10 15 -10 8 0 15 5 15 10 0 6 -7 10 -15 10 -8 0
-15 -4 -15 -10z"/>
<path d="M4053 1403 c-20 -7 -15 -23 7 -23 11 0 20 4 20 9 0 13 -12 19 -27 14z"/>
<path d="M2407 1394 c-4 -4 -7 -14 -7 -23 0 -11 3 -12 11 -4 6 6 10 16 7 23
-2 6 -7 8 -11 4z"/>
<path d="M3040 1390 c0 -13 18 -22 24 -11 3 5 -1 11 -9 15 -8 3 -15 1 -15 -4z"/>
<path d="M2356 1358 c3 -4 9 -8 15 -8 5 0 9 4 9 8 0 5 -7 9 -15 9 -8 0 -12 -4
-9 -9z"/>
<path d="M2430 1360 c0 -5 5 -10 11 -10 5 0 7 5 4 10 -3 6 -8 10 -11 10 -2 0
-4 -4 -4 -10z"/>
<path d="M3250 1360 c0 -5 5 -10 10 -10 6 0 10 5 10 10 0 6 -4 10 -10 10 -5 0
-10 -4 -10 -10z"/>
<path d="M549 1348 c-7 -28 -7 -48 1 -43 5 3 10 2 10 -3 0 -6 7 -13 16 -16 11
-4 15 -2 11 8 -3 7 1 22 8 33 12 17 11 19 -16 21 -16 1 -29 1 -30 0z"/>
<path d="M860 1339 c0 -34 36 -108 55 -113 11 -3 34 -19 52 -36 37 -35 43 -36
44 -12 0 13 2 14 6 2 3 -8 9 -17 12 -20 4 -3 12 -18 20 -35 l13 -30 -23 20
c-13 11 -39 35 -59 52 -19 18 -39 33 -43 33 -5 0 -22 10 -39 21 -16 12 -40 22
-54 22 -13 0 -24 2 -24 6 0 4 -9 7 -20 8 -11 1 -20 -3 -20 -8 0 -6 4 -8 9 -5
5 3 14 0 20 -8 12 -14 58 -31 74 -27 5 1 6 -3 3 -8 -4 -6 15 -19 41 -31 27
-12 59 -32 73 -45 40 -38 107 -56 69 -18 -5 5 -12 25 -14 44 -3 21 -1 29 4 20
5 -8 16 -11 28 -7 13 4 20 2 20 -8 0 -9 -4 -13 -9 -10 -15 9 -8 -5 27 -60 40
-62 40 -63 22 -81 -7 -7 -12 -27 -11 -44 1 -17 -2 -31 -8 -31 -5 0 -7 -4 -4
-9 8 -12 -21 -34 -34 -26 -6 4 -7 -2 -1 -17 11 -30 5 -154 -9 -176 -9 -14 -10
-12 -4 8 5 19 4 22 -6 14 -13 -13 -5 -54 11 -54 6 0 6 -8 -1 -20 -8 -15 -7
-26 5 -44 14 -22 44 -41 50 -34 15 16 59 109 61 128 2 14 5 39 7 55 3 19 -1
37 -11 48 -8 9 -13 17 -9 17 3 0 -1 25 -8 57 -15 65 -12 81 18 85 30 4 25 34
-19 126 -23 48 -56 94 -97 135 -81 82 -217 154 -217 116z m175 -89 c3 -5 1
-10 -4 -10 -6 0 -11 5 -11 10 0 6 2 10 4 10 3 0 8 -4 11 -10z m172 -276 c-3
-3 -12 -4 -19 -1 -8 3 -5 6 6 6 11 1 17 -2 13 -5z"/>
<path d="M3151 1339 c-19 -8 -21 -12 -11 -24 17 -21 27 -19 35 6 9 26 5 29
-24 18z"/>
<path d="M3691 1334 c0 -11 3 -14 6 -6 3 7 2 16 -1 19 -3 4 -6 -2 -5 -13z"/>
<path d="M200 1311 c0 -6 4 -13 10 -16 6 -3 7 1 4 9 -7 18 -14 21 -14 7z"/>
<path d="M3381 1314 c0 -6 -12 -10 -26 -9 -19 3 -25 -1 -25 -16 0 -10 0 -22 0
-26 0 -5 11 -9 25 -10 29 -2 39 13 32 49 -2 13 -5 18 -6 12z"/>
<path d="M431 1293 c-14 -9 -21 -22 -18 -34 3 -10 0 -20 -6 -22 -7 -2 -7 -6
-2 -9 16 -9 55 10 62 29 4 10 11 21 16 24 5 4 1 12 -10 17 -15 8 -25 7 -42 -5z"/>
<path d="M1565 1291 c-3 -5 -1 -12 5 -16 5 -3 10 1 10 9 0 18 -6 21 -15 7z"/>
<path d="M1870 1291 c0 -6 5 -13 10 -16 6 -3 10 1 10 9 0 9 -4 16 -10 16 -5 0
-10 -4 -10 -9z"/>
<path d="M2395 1280 c7 -21 -10 -29 -18 -7 -2 6 -4 0 -4 -15 -1 -36 8 -35 30
1 15 26 15 30 1 35 -12 4 -14 1 -9 -14z"/>
<path d="M2586 1277 c3 -10 9 -15 12 -12 3 3 0 11 -7 18 -10 9 -11 8 -5 -6z"/>
<path d="M3287 1283 c-4 -3 -7 -11 -7 -17 0 -6 5 -5 12 2 6 6 9 14 7 17 -3 3
-9 2 -12 -2z"/>
<path d="M3410 1276 c0 -8 7 -16 15 -20 13 -4 14 -2 5 14 -13 23 -20 26 -20 6z"/>
<path d="M375 1271 c-11 -5 -23 -7 -27 -4 -7 4 -12 -11 -9 -29 0 -4 -6 -5 -14
-2 -8 4 -15 1 -15 -6 0 -13 -26 -41 -32 -35 -3 3 -15 -7 -29 -21 -20 -21 -21
-27 -9 -34 10 -7 11 -10 3 -10 -7 0 -13 -8 -14 -17 0 -15 -2 -15 -9 2 -9 20
-9 20 -9 0 -1 -12 -5 -25 -10 -30 -5 -6 -11 -32 -14 -60 -8 -81 -15 -109 -26
-113 -6 -2 -11 -8 -11 -13 0 -6 5 -7 12 -3 7 4 8 3 4 -4 -4 -6 -4 -23 0 -37
10 -40 24 -11 24 50 1 55 24 135 63 211 31 61 112 145 132 137 9 -3 15 1 15
11 0 9 -1 16 -2 15 -2 0 -12 -4 -23 -8z"/>
<path d="M3559 1268 c-1 -7 0 -24 1 -37 1 -13 -3 -21 -8 -17 -5 3 -13 -1 -16
-9 -4 -13 -2 -13 14 -5 10 6 23 10 27 9 20 -3 21 3 3 21 -11 11 -17 26 -14 35
4 8 3 15 0 15 -3 0 -6 -6 -7 -12z"/>
<path d="M3587 1269 c7 -7 15 -10 18 -7 3 3 -2 9 -12 12 -14 6 -15 5 -6 -5z"/>
<path d="M4080 1260 c0 -5 5 -10 11 -10 5 0 7 5 4 10 -3 6 -8 10 -11 10 -2 0
-4 -4 -4 -10z"/>
<path d="M680 1250 c-12 -8 -11 -10 8 -10 12 0 22 5 22 10 0 13 -11 13 -30 0z"/>
<path d="M726 1251 c-4 -5 3 -7 14 -4 23 6 26 13 6 13 -8 0 -17 -4 -20 -9z"/>
<path d="M2657 1239 c-4 -16 -3 -18 9 -8 16 13 19 29 5 29 -5 0 -11 -9 -14
-21z"/>
<path d="M3457 1246 c-4 -10 -1 -16 9 -16 9 0 12 -5 8 -12 -5 -10 -4 -10 7 0
11 10 11 15 -3 28 -14 14 -16 14 -21 0z"/>
<path d="M3660 1251 c0 -6 5 -13 12 -17 6 -4 8 -3 4 4 -3 5 0 13 6 15 8 3 6 6
-4 6 -10 1 -18 -3 -18 -8z"/>
<path d="M1188 1243 c-58 -9 -25 -19 48 -15 86 5 112 -4 138 -49 29 -49 15
-90 -47 -142 -29 -24 -61 -49 -72 -56 -18 -11 -17 -12 10 -6 36 8 135 90 136
113 4 60 -15 108 -57 141 -26 21 -80 25 -156 14z"/>
<path d="M2908 1243 c7 -3 16 -2 19 1 4 3 -2 6 -13 5 -11 0 -14 -3 -6 -6z"/>
<path d="M3890 1240 c-8 -5 -12 -12 -9 -15 4 -3 12 1 19 10 14 17 11 19 -10 5z"/>
<path d="M1116 1230 c-11 -3 -15 -9 -10 -13 10 -6 42 9 34 16 -3 3 -14 1 -24
-3z"/>
<path d="M2350 1226 c0 -9 -7 -16 -16 -16 -13 0 -14 -3 -5 -13 8 -11 6 -16
-12 -24 -25 -11 -34 -45 -10 -36 7 3 13 11 13 18 0 7 9 15 21 18 12 3 18 10
14 16 -3 6 -1 11 4 11 14 0 14 27 1 35 -5 3 -10 -1 -10 -9z"/>
<path d="M2020 1220 c0 -5 5 -10 11 -10 5 0 7 5 4 10 -3 6 -8 10 -11 10 -2 0
-4 -4 -4 -10z"/>
<path d="M2111 1214 c0 -11 3 -14 6 -6 3 7 2 16 -1 19 -3 4 -6 -2 -5 -13z"/>
<path d="M3364 1215 c-9 -22 4 -35 35 -35 15 0 32 -5 39 -12 7 -7 12 -8 12 -2
0 5 -9 15 -20 22 -12 7 -18 17 -15 22 9 14 -9 12 -24 -2 -11 -11 -13 -10 -8 5
8 20 -11 23 -19 2z"/>
<path d="M3430 1220 c0 -5 5 -10 11 -10 5 0 7 5 4 10 -3 6 -8 10 -11 10 -2 0
-4 -4 -4 -10z"/>
<path d="M2990 1205 c14 -16 40 -20 40 -6 0 9 -24 21 -42 21 -6 0 -6 -6 2 -15z"/>
<path d="M2626 1195 c-9 -26 -7 -32 5 -12 6 10 9 21 6 23 -2 3 -7 -2 -11 -11z"/>
<path d="M3290 1200 c0 -5 5 -10 11 -10 5 0 7 5 4 10 -3 6 -8 10 -11 10 -2 0
-4 -4 -4 -10z"/>
<path d="M3220 1175 c0 -19 4 -23 17 -18 10 4 12 8 6 10 -7 3 -9 11 -6 19 3 8
0 14 -6 14 -6 0 -11 -11 -11 -25z"/>
<path d="M3545 1180 c-3 -5 -1 -10 4 -10 6 0 11 5 11 10 0 6 -2 10 -4 10 -3 0
-8 -4 -11 -10z"/>
<path d="M2477 1174 c-3 -5 1 -15 9 -22 16 -14 18 -5 5 17 -5 7 -11 9 -14 5z"/>
<path d="M3660 1169 c0 -5 5 -7 10 -4 6 3 10 8 10 11 0 2 -4 4 -10 4 -5 0 -10
-5 -10 -11z"/>
<path d="M365 1160 c-3 -5 -2 -10 3 -10 18 0 8 -32 -13 -40 -27 -10 -82 -60
-67 -60 6 0 17 7 26 15 19 19 24 19 29 -2 3 -12 5 -10 6 7 0 14 10 31 21 38
11 7 20 21 20 31 0 23 -16 36 -25 21z"/>
<path d="M915 1154 c9 -9 19 -13 23 -10 3 4 0 11 -8 16 -24 15 -33 11 -15 -6z"/>
<path d="M3365 1160 c-3 -5 -1 -10 4 -10 6 0 11 5 11 10 0 6 -2 10 -4 10 -3 0
-8 -4 -11 -10z"/>
<path d="M3490 1159 c0 -5 5 -7 10 -4 6 3 10 8 10 11 0 2 -4 4 -10 4 -5 0 -10
-5 -10 -11z"/>
<path d="M3570 1160 c0 -12 28 -21 35 -11 2 5 -4 11 -15 14 -11 3 -20 2 -20
-3z"/>
<path d="M3920 1166 c0 -2 9 -6 20 -9 11 -3 18 -1 14 4 -5 9 -34 13 -34 5z"/>
<path d="M0 1133 c0 -12 5 -25 10 -28 13 -8 13 15 0 35 -8 12 -10 11 -10 -7z"/>
<path d="M1710 1140 c0 -3 7 -15 15 -26 15 -19 15 -19 8 0 -5 16 -3 18 11 13
11 -5 16 -3 14 5 -4 12 -48 20 -48 8z"/>
<path d="M2258 1143 c7 -3 16 -2 19 1 4 3 -2 6 -13 5 -11 0 -14 -3 -6 -6z"/>
<path d="M3038 1143 c7 -3 16 -2 19 1 4 3 -2 6 -13 5 -11 0 -14 -3 -6 -6z"/>
<path d="M3410 1139 c0 -5 5 -7 10 -4 6 3 10 8 10 11 0 2 -4 4 -10 4 -5 0 -10
-5 -10 -11z"/>
<path d="M3640 1140 c0 -5 5 -10 11 -10 5 0 7 5 4 10 -3 6 -8 10 -11 10 -2 0
-4 -4 -4 -10z"/>
<path d="M340 1129 c0 -5 5 -7 10 -4 6 3 10 8 10 11 0 2 -4 4 -10 4 -5 0 -10
-5 -10 -11z"/>
<path d="M959 1119 c-6 -13 -7 -19 -1 -15 6 3 13 -2 15 -11 3 -10 5 -3 6 15 1
37 -4 40 -20 11z"/>
<path d="M3328 1133 c6 -2 10 -9 6 -14 -3 -5 2 -9 10 -9 9 0 16 4 16 9 0 9
-25 22 -38 20 -4 0 -1 -3 6 -6z"/>
<path d="M3663 1129 c-9 -9 -8 -15 3 -26 17 -17 67 -26 57 -10 -4 6 0 8 10 4
23 -9 21 2 -5 24 -24 22 -49 24 -65 8z"/>
<path d="M3477 1103 c-16 -32 -12 -59 9 -67 11 -4 12 -2 4 14 -5 10 -10 26
-10 36 0 13 3 14 15 4 13 -11 15 -8 15 14 0 34 -16 33 -33 -1z"/>
<path d="M2181 1104 c0 -11 3 -14 6 -6 3 7 2 16 -1 19 -3 4 -6 -2 -5 -13z"/>
<path d="M3236 1104 c-9 -24 -7 -27 9 -10 17 17 19 26 6 26 -5 0 -12 -7 -15
-16z"/>
<path d="M3563 1097 c3 -9 1 -17 -5 -19 -6 -2 -3 -9 6 -17 14 -11 16 -11 16 3
0 14 11 21 33 17 4 0 7 7 7 16 0 13 -3 14 -12 5 -8 -8 -17 -8 -31 0 -17 8 -19
8 -14 -5z"/>
<path d="M3337 1085 c3 -8 9 -12 14 -9 12 7 11 11 -5 17 -10 4 -13 1 -9 -8z"/>
<path d="M3780 1093 c0 -6 8 -17 18 -24 16 -13 16 -13 2 6 -8 11 -16 22 -17
24 -2 2 -3 0 -3 -6z"/>
<path d="M1705 1080 c3 -5 10 -10 16 -10 5 0 9 5 9 10 0 6 -7 10 -16 10 -8 0
-12 -4 -9 -10z"/>
<path d="M3370 1084 c0 -3 11 -9 24 -14 25 -9 29 -39 11 -71 -5 -9 -2 -9 9 2
10 9 19 28 20 41 3 21 -3 27 -31 36 -18 6 -33 8 -33 6z"/>
<path d="M3282 1060 c7 -11 21 -20 31 -20 10 0 29 -7 42 -16 27 -17 32 -9 12
17 -11 14 -67 39 -89 39 -4 0 -3 -9 4 -20z"/>
<path d="M3122 1050 c0 -14 2 -19 5 -12 2 6 2 18 0 25 -3 6 -5 1 -5 -13z"/>
<path d="M3656 1061 c-17 -6 -17 -8 -4 -14 10 -3 19 0 22 9 3 8 4 14 3 13 -1
0 -11 -4 -21 -8z"/>
<path d="M3746 1045 c4 -8 12 -15 20 -15 20 0 17 7 -6 20 -16 9 -18 8 -14 -5z"/>
<path d="M4028 1053 c7 -3 16 -2 19 1 4 3 -2 6 -13 5 -11 0 -14 -3 -6 -6z"/>
<path d="M1112 1036 c7 -8 15 -12 17 -11 5 6 -10 25 -20 25 -5 0 -4 -6 3 -14z"/>
<path d="M2445 1040 c3 -5 11 -10 16 -10 6 0 7 5 4 10 -3 6 -11 10 -16 10 -6
0 -7 -4 -4 -10z"/>
<path d="M2780 1036 c0 -2 8 -10 18 -17 15 -13 16 -12 3 4 -13 16 -21 21 -21
13z"/>
<path d="M2950 1029 c0 -24 69 -59 119 -59 22 0 -6 28 -50 51 -42 21 -69 24
-69 8z"/>
<path d="M3540 1020 c0 -5 5 -10 11 -10 5 0 7 5 4 10 -3 6 -8 10 -11 10 -2 0
-4 -4 -4 -10z"/>
<path d="M3875 1020 c-3 -5 -1 -10 4 -10 6 0 11 5 11 10 0 6 -2 10 -4 10 -3 0
-8 -4 -11 -10z"/>
<path d="M3463 1002 c10 -10 17 -24 17 -30 0 -7 4 -12 10 -12 10 0 3 27 -13
48 -5 6 -14 12 -20 12 -5 0 -3 -8 6 -18z"/>
<path d="M3631 1009 c17 -11 39 -12 39 -1 0 4 -12 8 -27 9 -19 1 -22 -1 -12
-8z"/>
<path d="M4070 1009 c0 -5 5 -7 10 -4 6 3 10 8 10 11 0 2 -4 4 -10 4 -5 0 -10
-5 -10 -11z"/>
<path d="M966 1002 c-2 -4 4 -8 15 -8 10 0 19 4 19 8 0 10 -27 10 -34 0z"/>
<path d="M3605 989 c-11 -16 -1 -19 13 -3 7 8 8 14 3 14 -5 0 -13 -5 -16 -11z"/>
<path d="M3921 991 c-8 -6 -9 -11 -3 -15 6 -3 14 -1 17 5 9 14 2 20 -14 10z"/>
<path d="M2830 980 c0 -6 7 -10 15 -10 8 0 15 2 15 4 0 2 -7 6 -15 10 -8 3
-15 1 -15 -4z"/>
<path d="M3560 979 c0 -5 5 -7 10 -4 6 3 10 8 10 11 0 2 -4 4 -10 4 -5 0 -10
-5 -10 -11z"/>
<path d="M1000 971 c0 -6 5 -13 10 -16 6 -3 10 1 10 9 0 9 -4 16 -10 16 -5 0
-10 -4 -10 -9z"/>
<path d="M3445 955 c6 -29 6 -29 -9 -10 -8 11 -15 16 -15 10 0 -5 6 -19 14
-29 8 -11 15 -30 15 -43 0 -20 2 -22 19 -11 18 11 18 12 -2 29 -17 13 -19 20
-9 31 9 12 8 19 -4 34 -15 18 -15 17 -9 -11z"/>
<path d="M3648 964 c6 -3 12 -13 13 -22 0 -11 2 -12 6 -4 2 6 12 12 21 12 22
0 12 6 -23 13 -16 4 -24 4 -17 1z"/>
<path d="M3525 950 c3 -5 8 -10 11 -10 2 0 4 5 4 10 0 6 -5 10 -11 10 -5 0 -7
-4 -4 -10z"/>
<path d="M3555 950 c-3 -5 -1 -10 4 -10 6 0 11 5 11 10 0 6 -2 10 -4 10 -3 0
-8 -4 -11 -10z"/>
<path d="M4028 953 c7 -3 16 -2 19 1 4 3 -2 6 -13 5 -11 0 -14 -3 -6 -6z"/>
<path d="M975 940 c3 -5 8 -10 11 -10 2 0 4 5 4 10 0 6 -5 10 -11 10 -5 0 -7
-4 -4 -10z"/>
<path d="M2570 930 c0 -11 4 -20 9 -20 5 0 7 9 4 20 -3 11 -7 20 -9 20 -2 0
-4 -9 -4 -20z"/>
<path d="M2835 930 c10 -11 20 -18 23 -15 7 6 -18 35 -31 35 -5 0 -2 -9 8 -20z"/>
<path d="M3500 940 c0 -5 5 -10 11 -10 5 0 7 5 4 10 -3 6 -8 10 -11 10 -2 0
-4 -4 -4 -10z"/>
<path d="M3336 925 c4 -8 9 -15 13 -16 3 0 14 -2 24 -4 18 -3 18 -3 1 16 -20
23 -46 26 -38 4z"/>
<path d="M3886 925 c-3 -9 -6 -22 -5 -28 0 -7 5 -1 10 12 5 13 8 26 5 28 -2 2
-6 -3 -10 -12z"/>
<path d="M1020 915 c-12 -14 -10 -15 14 -11 23 4 26 3 16 -10 -8 -8 -8 -14 -2
-14 16 0 24 33 10 42 -18 11 -24 10 -38 -7z"/>
<path d="M2160 919 c0 -5 5 -7 10 -4 6 3 10 8 10 11 0 2 -4 4 -10 4 -5 0 -10
-5 -10 -11z"/>
<path d="M3572 901 c-9 -26 -7 -33 15 -56 18 -18 29 -22 34 -14 4 7 17 9 33 5
14 -3 26 -2 26 3 0 15 -69 51 -85 45 -9 -4 -15 0 -15 9 0 8 5 17 12 19 9 3 9
6 1 11 -7 4 -15 -5 -21 -22z"/>
<path d="M3945 920 c3 -5 8 -10 11 -10 2 0 4 5 4 10 0 6 -5 10 -11 10 -5 0 -7
-4 -4 -10z"/>
<path d="M3485 910 c-3 -5 -1 -10 4 -10 6 0 11 5 11 10 0 6 -2 10 -4 10 -3 0
-8 -4 -11 -10z"/>
<path d="M3730 910 c0 -5 5 -10 10 -10 6 0 10 5 10 10 0 6 -4 10 -10 10 -5 0
-10 -4 -10 -10z"/>
<path d="M4025 910 c3 -5 11 -10 16 -10 6 0 7 5 4 10 -3 6 -11 10 -16 10 -6 0
-7 -4 -4 -10z"/>
<path d="M1795 900 c-3 -5 1 -10 9 -10 9 0 16 5 16 10 0 6 -4 10 -9 10 -6 0
-13 -4 -16 -10z"/>
<path d="M2561 884 c0 -11 3 -14 6 -6 3 7 2 16 -1 19 -3 4 -6 -2 -5 -13z"/>
<path d="M3526 863 c-6 -14 -5 -15 5 -6 7 7 10 15 7 18 -3 3 -9 -2 -12 -12z"/>
<path d="M2045 860 c3 -5 13 -10 21 -10 8 0 12 5 9 10 -3 6 -13 10 -21 10 -8
0 -12 -4 -9 -10z"/>
<path d="M3820 860 c0 -5 5 -10 11 -10 5 0 7 5 4 10 -3 6 -8 10 -11 10 -2 0
-4 -4 -4 -10z"/>
<path d="M3996 861 c-3 -5 0 -11 8 -14 15 -6 26 1 26 15 0 11 -27 10 -34 -1z"/>
<path d="M3550 849 c0 -5 5 -7 10 -4 6 3 10 8 10 11 0 2 -4 4 -10 4 -5 0 -10
-5 -10 -11z"/>
<path d="M4155 850 c3 -5 8 -10 11 -10 2 0 4 5 4 10 0 6 -5 10 -11 10 -5 0 -7
-4 -4 -10z"/>
<path d="M3485 840 c3 -5 11 -10 16 -10 6 0 7 5 4 10 -3 6 -11 10 -16 10 -6 0
-7 -4 -4 -10z"/>
<path d="M2306 824 c-4 -9 -4 -19 -1 -22 3 -3 5 -1 5 5 0 7 10 9 23 5 20 -5
21 -4 8 11 -17 21 -27 21 -35 1z"/>
<path d="M1210 816 c0 -9 5 -16 10 -16 6 0 10 4 10 9 0 6 -4 13 -10 16 -5 3
-10 -1 -10 -9z"/>
<path d="M192 795 c0 -16 2 -22 5 -12 2 9 2 23 0 30 -3 6 -5 -1 -5 -18z"/>
<path d="M3476 811 c-4 -7 -5 -15 -2 -18 9 -9 19 4 14 18 -4 11 -6 11 -12 0z"/>
<path d="M2540 806 c0 -2 7 -7 16 -10 8 -3 12 -2 9 4 -6 10 -25 14 -25 6z"/>
<path d="M2610 790 c0 -5 5 -10 11 -10 5 0 7 5 4 10 -3 6 -8 10 -11 10 -2 0
-4 -4 -4 -10z"/>
<path d="M3530 781 c0 -5 7 -12 16 -15 14 -5 15 -4 4 9 -14 17 -20 19 -20 6z"/>
<path d="M3458 773 c7 -3 16 -2 19 1 4 3 -2 6 -13 5 -11 0 -14 -3 -6 -6z"/>
<path d="M3570 769 c0 -5 5 -7 10 -4 6 3 10 8 10 11 0 2 -4 4 -10 4 -5 0 -10
-5 -10 -11z"/>
<path d="M3610 770 c8 -5 20 -10 25 -10 6 0 3 5 -5 10 -8 5 -19 10 -25 10 -5
0 -3 -5 5 -10z"/>
<path d="M3711 775 c1 -19 18 -51 18 -35 0 8 -4 22 -9 30 -5 8 -9 11 -9 5z"/>
<path d="M3306 755 c4 -10 19 -15 43 -15 30 1 33 2 18 11 -10 6 -29 12 -42 15
-19 3 -23 1 -19 -11z"/>
<path d="M3495 760 c3 -5 1 -10 -4 -10 -20 0 -11 -19 12 -25 12 -3 32 -11 44
-17 13 -6 26 -8 30 -3 5 4 2 10 -4 12 -7 3 -13 10 -13 16 0 7 -12 18 -27 25
-33 15 -46 15 -38 2z"/>
<path d="M3922 762 c-8 -5 -10 -16 -6 -27 5 -13 4 -16 -4 -11 -8 5 -10 2 -6
-8 3 -9 9 -15 12 -14 4 1 22 -2 41 -6 28 -7 37 -5 48 10 15 20 17 38 4 30 -10
-6 -61 16 -61 27 0 9 -12 9 -28 -1z"/>
<path d="M201 738 c-1 -14 -4 -28 -8 -31 -5 -2 -2 -2 5 -1 6 2 12 -2 12 -8 0
-6 2 -9 4 -7 3 2 1 20 -4 39 -7 31 -8 32 -9 8z"/>
<path d="M3451 744 c0 -11 3 -14 6 -6 3 7 2 16 -1 19 -3 4 -6 -2 -5 -13z"/>
<path d="M1720 740 c0 -5 5 -10 11 -10 5 0 7 5 4 10 -3 6 -8 10 -11 10 -2 0
-4 -4 -4 -10z"/>
<path d="M3760 734 c0 -8 5 -12 10 -9 6 4 8 11 5 16 -9 14 -15 11 -15 -7z"/>
<path d="M6 725 c4 -8 8 -15 10 -15 2 0 4 7 4 15 0 8 -4 15 -10 15 -5 0 -7 -7
-4 -15z"/>
<path d="M662 733 c-12 -2 -20 -9 -16 -14 3 -5 10 -7 15 -4 5 4 9 -3 9 -14 0
-10 6 -22 13 -24 6 -3 1 -6 -13 -7 -19 0 -21 -3 -10 -9 8 -5 25 -12 38 -15 28
-9 29 6 1 43 -12 16 -18 34 -15 40 4 6 6 10 4 10 -2 -1 -13 -4 -26 -6z"/>
<path d="M2216 726 c3 -7 -2 -21 -11 -30 -15 -15 -15 -16 4 -16 14 0 19 5 15
15 -4 8 -1 15 5 15 6 0 8 7 5 15 -4 8 -10 15 -15 15 -4 0 -6 -6 -3 -14z"/>
<path d="M3596 725 c4 -8 8 -15 10 -15 2 0 4 7 4 15 0 8 -4 15 -10 15 -5 0 -7
-7 -4 -15z"/>
<path d="M3686 725 c4 -8 8 -15 10 -15 2 0 4 7 4 15 0 8 -4 15 -10 15 -5 0 -7
-7 -4 -15z"/>
<path d="M1850 715 c0 -8 7 -15 16 -15 14 0 14 3 4 15 -7 8 -14 15 -16 15 -2
0 -4 -7 -4 -15z"/>
<path d="M3630 701 c0 -5 9 -7 20 -4 11 3 20 7 20 9 0 2 -9 4 -20 4 -11 0 -20
-4 -20 -9z"/>
<path d="M2400 690 c-8 -5 -12 -11 -9 -14 2 -3 11 -1 19 4 8 5 12 11 9 14 -2
3 -11 1 -19 -4z"/>
<path d="M3700 687 c0 -7 9 -18 20 -25 18 -11 20 -10 20 13 0 18 -5 25 -20 25
-11 0 -20 -6 -20 -13z"/>
<path d="M3785 690 c3 -5 8 -10 11 -10 2 0 4 5 4 10 0 6 -5 10 -11 10 -5 0 -7
-4 -4 -10z"/>
<path d="M4026 685 c4 -8 8 -15 10 -15 2 0 4 7 4 15 0 8 -4 15 -10 15 -5 0 -7
-7 -4 -15z"/>
<path d="M1925 680 c-3 -5 1 -10 10 -10 9 0 13 5 10 10 -3 6 -8 10 -10 10 -2
0 -7 -4 -10 -10z"/>
<path d="M2110 674 c0 -8 5 -12 10 -9 6 3 10 10 10 16 0 5 -4 9 -10 9 -5 0
-10 -7 -10 -16z"/>
<path d="M3496 675 c-6 -15 4 -19 39 -15 27 3 32 9 15 20 -22 14 -47 12 -54
-5z"/>
<path d="M4064 675 c-8 -20 -3 -24 17 -16 15 5 15 8 3 19 -12 11 -15 10 -20
-3z"/>
<path d="M1860 666 c0 -9 5 -16 10 -16 6 0 10 4 10 9 0 6 -4 13 -10 16 -5 3
-10 -1 -10 -9z"/>
<path d="M3770 665 c8 -11 15 -21 16 -23 0 -1 9 8 20 20 15 18 16 20 2 9 -15
-11 -21 -11 -35 0 -17 13 -17 13 -3 -6z"/>
<path d="M14 655 c-10 -8 -14 -15 -8 -15 5 0 19 7 30 15 10 8 14 15 8 15 -5 0
-19 -7 -30 -15z"/>
<path d="M2150 663 c8 -3 19 -13 24 -21 7 -12 10 -12 17 -1 11 19 1 29 -29 28
-16 0 -21 -3 -12 -6z"/>
<path d="M3917 664 c-12 -13 3 -21 28 -17 13 3 22 9 19 14 -6 10 -38 12 -47 3z"/>
<path d="M1895 640 c3 -5 8 -10 11 -10 2 0 4 5 4 10 0 6 -5 10 -11 10 -5 0 -7
-4 -4 -10z"/>
<path d="M2601 634 c0 -11 3 -14 6 -6 3 7 2 16 -1 19 -3 4 -6 -2 -5 -13z"/>
<path d="M2742 638 c5 -15 58 -24 58 -10 0 5 -10 12 -22 16 -34 9 -40 7 -36
-6z"/>
<path d="M806 624 c-4 -9 -4 -19 -1 -22 2 -3 7 3 11 12 4 9 4 19 1 22 -2 3 -7
-3 -11 -12z"/>
<path d="M1006 632 c-2 -4 2 -16 10 -27 13 -18 14 -18 14 8 0 25 -13 36 -24
19z"/>
<path d="M2130 625 c0 -16 16 -20 24 -6 3 5 -1 11 -9 15 -9 3 -15 0 -15 -9z"/>
<path d="M2515 630 c3 -5 13 -10 21 -10 8 0 14 5 14 10 0 6 -9 10 -21 10 -11
0 -17 -4 -14 -10z"/>
<path d="M2870 626 c0 -9 8 -16 20 -16 11 0 20 5 20 12 0 6 -3 8 -7 5 -3 -4
-12 -2 -20 4 -10 9 -13 8 -13 -5z"/>
<path d="M3650 630 c0 -5 5 -10 10 -10 6 0 10 5 10 10 0 6 -4 10 -10 10 -5 0
-10 -4 -10 -10z"/>
<path d="M7 624 c-8 -9 1 -24 14 -24 6 0 8 4 5 9 -4 5 0 12 6 14 9 4 8 6 -3 6
-9 1 -19 -2 -22 -5z"/>
<path d="M2206 615 c-3 -8 -1 -15 4 -15 6 0 10 7 10 15 0 8 -2 15 -4 15 -2 0
-6 -7 -10 -15z"/>
<path d="M3850 620 c0 -5 5 -10 11 -10 5 0 7 5 4 10 -3 6 -8 10 -11 10 -2 0
-4 -4 -4 -10z"/>
<path d="M3893 623 c-18 -7 -16 -33 2 -33 8 0 15 2 15 4 0 2 3 11 6 20 6 16 0
19 -23 9z"/>
<path d="M3970 613 c0 -13 -5 -23 -11 -23 -5 0 -7 -4 -4 -10 6 -9 45 -15 45
-6 0 2 -7 17 -15 32 -14 27 -15 27 -15 7z"/>
<path d="M2169 613 c0 -5 -2 -18 -5 -30 -6 -32 2 -28 15 7 6 18 6 30 0 30 -5
0 -9 -3 -10 -7z"/>
<path d="M2416 607 c3 -10 9 -15 12 -12 3 3 0 11 -7 18 -10 9 -11 8 -5 -6z"/>
<path d="M3416 590 l-17 -35 22 21 c12 12 19 28 17 35 -3 8 -12 -1 -22 -21z"/>
<path d="M3600 601 c0 -12 6 -21 15 -21 8 0 15 4 15 9 0 5 -7 14 -15 21 -13
10 -15 9 -15 -9z"/>
<path d="M4000 612 c0 -4 4 -13 9 -20 7 -11 9 -11 14 1 3 9 -1 18 -9 21 -8 3
-14 2 -14 -2z"/>
<path d="M4075 607 c-13 -7 -22 -37 -11 -37 2 0 11 -3 20 -6 9 -4 16 -1 16 6
0 6 10 20 23 31 l22 18 -28 -1 c-15 -2 -34 -6 -42 -11z"/>
<path d="M971 589 c-13 -10 -19 -19 -15 -19 13 1 48 29 43 34 -2 2 -15 -4 -28
-15z"/>
<path d="M836 587 c3 -10 9 -15 12 -12 3 3 0 11 -7 18 -10 9 -11 8 -5 -6z"/>
<path d="M1970 591 c0 -5 7 -14 15 -21 10 -9 15 -9 15 -1 0 6 -5 11 -11 11 -5
0 -7 5 -4 10 3 6 1 10 -4 10 -6 0 -11 -4 -11 -9z"/>
<path d="M2360 590 c0 -5 5 -10 10 -10 6 0 10 5 10 10 0 6 -4 10 -10 10 -5 0
-10 -4 -10 -10z"/>
<path d="M2945 580 c-3 -5 -1 -10 4 -10 6 0 11 5 11 10 0 6 -2 10 -4 10 -3 0
-8 -4 -11 -10z"/>
<path d="M3665 570 c3 -5 8 -10 11 -10 2 0 4 5 4 10 0 6 -5 10 -11 10 -5 0 -7
-4 -4 -10z"/>
<path d="M2085 560 c-3 -5 -1 -10 4 -10 6 0 11 5 11 10 0 6 -2 10 -4 10 -3 0
-8 -4 -11 -10z"/>
<path d="M2540 563 c0 -5 7 -18 15 -29 13 -18 14 -18 8 4 -5 22 -23 41 -23 25z"/>
<path d="M3710 558 c14 -5 33 -14 43 -19 10 -6 17 -6 17 0 0 5 -14 14 -31 20
-40 14 -63 13 -29 -1z"/>
<path d="M3860 549 c-17 -30 -6 -34 14 -4 9 14 12 25 7 25 -6 0 -15 -9 -21
-21z"/>
<path d="M4027 564 c-3 -3 -3 -12 0 -20 3 -8 0 -14 -6 -14 -17 0 -13 -36 7
-51 15 -13 16 -12 3 4 -12 15 -11 17 2 17 9 0 19 -4 22 -10 9 -14 35 -13 35 2
0 6 -3 8 -6 5 -4 -3 -15 -2 -26 4 -15 8 -19 18 -16 40 4 27 -1 36 -15 23z"/>
<path d="M1093 547 c1 -6 -10 -12 -25 -12 -14 0 -30 -3 -34 -7 -12 -13 -22 -9
-28 10 -3 9 -4 5 -2 -10 2 -17 -1 -25 -9 -21 -7 2 -20 -9 -28 -26 -14 -27 -14
-31 -1 -31 9 0 12 5 8 12 -5 8 -2 9 10 5 10 -4 20 -7 23 -7 12 0 -55 -48 -77
-55 -22 -7 -23 -7 -7 9 14 14 14 46 0 46 -3 0 -2 -7 1 -16 5 -14 4 -15 -9 -4
-11 9 -12 17 -4 31 8 15 6 19 -6 19 -9 0 -14 4 -11 8 2 4 -6 9 -20 10 -13 1
-24 -2 -24 -7 0 -4 -11 -6 -25 -3 -14 2 -41 1 -61 -2 -29 -6 -33 -10 -24 -21
12 -15 8 -16 -70 -15 l-34 0 22 -20 c19 -18 27 -39 23 -62 -1 -8 29 -11 94
-10 34 1 37 0 15 -7 -41 -15 -162 -12 -225 4 -77 20 -147 59 -210 117 -46 42
-52 45 -47 23 2 -13 13 -27 23 -30 10 -4 19 -13 19 -21 0 -8 7 -14 16 -14 23
0 94 -53 90 -66 -5 -14 58 -44 94 -45 14 0 81 1 150 4 137 5 187 19 284 81 47
30 146 122 146 136 0 3 -9 6 -20 7 -11 1 -19 -3 -17 -10z m-269 -72 c3 -8 13
-15 21 -15 9 0 13 -4 10 -10 -3 -5 3 -15 15 -22 29 -18 25 -32 -14 -51 -39
-18 -38 -20 -51 56 -3 22 -12 37 -20 37 -8 0 -17 5 -20 10 -4 6 6 10 23 10 17
0 32 -6 36 -15z m220 3 c-3 -4 -9 -8 -15 -8 -5 0 -9 4 -9 8 0 5 7 9 15 9 8 0
12 -4 9 -9z"/>
<path d="M1687 539 c6 -22 23 -26 23 -5 0 8 -6 16 -14 19 -10 4 -12 0 -9 -14z"/>
<path d="M1956 545 c-3 -10 -4 -20 -1 -23 3 -3 5 -2 5 3 0 4 7 2 15 -5 19 -15
20 0 2 24 -13 18 -14 18 -21 1z"/>
<path d="M2110 551 c0 -6 5 -13 10 -16 6 -3 10 1 10 9 0 9 -4 16 -10 16 -5 0
-10 -4 -10 -9z"/>
<path d="M3953 533 c-1 -19 1 -22 8 -12 11 17 12 39 2 39 -5 0 -9 -12 -10 -27z"/>
<path d="M3993 553 c-7 -3 -13 -17 -12 -31 0 -16 3 -21 6 -12 3 8 10 18 16 21
13 9 5 27 -10 22z"/>
<path d="M2140 534 c0 -8 5 -12 10 -9 6 3 10 10 10 16 0 5 -4 9 -10 9 -5 0
-10 -7 -10 -16z"/>
<path d="M2981 534 c0 -11 3 -14 6 -6 3 7 2 16 -1 19 -3 4 -6 -2 -5 -13z"/>
<path d="M2370 529 c0 -5 5 -7 10 -4 6 3 10 8 10 11 0 2 -4 4 -10 4 -5 0 -10
-5 -10 -11z"/>
<path d="M2760 530 c0 -5 5 -10 10 -10 6 0 10 5 10 10 0 6 -4 10 -10 10 -5 0
-10 -4 -10 -10z"/>
<path d="M3686 523 c-6 -14 -5 -15 5 -6 7 7 10 15 7 18 -3 3 -9 -2 -12 -12z"/>
<path d="M560 521 c8 -5 26 -12 40 -15 l25 -7 -25 15 c-14 9 -32 15 -40 15
-13 0 -13 -1 0 -8z"/>
<path d="M3816 513 c-4 -9 -2 -21 4 -27 7 -7 10 -2 10 17 0 31 -5 34 -14 10z"/>
<path d="M4055 520 c3 -5 11 -10 16 -10 6 0 7 5 4 10 -3 6 -11 10 -16 10 -6 0
-7 -4 -4 -10z"/>
<path d="M2420 504 c0 -8 5 -12 10 -9 6 4 8 11 5 16 -9 14 -15 11 -15 -7z"/>
<path d="M2650 510 c0 -5 5 -10 10 -10 6 0 10 5 10 10 0 6 -4 10 -10 10 -5 0
-10 -4 -10 -10z"/>
<path d="M2947 514 c-3 -5 1 -15 9 -22 16 -14 18 -5 5 17 -5 7 -11 9 -14 5z"/>
<path d="M3580 511 c0 -6 4 -13 10 -16 6 -3 7 1 4 9 -7 18 -14 21 -14 7z"/>
<path d="M1676 495 c-3 -8 -1 -15 4 -15 6 0 10 7 10 15 0 8 -2 15 -4 15 -2 0
-6 -7 -10 -15z"/>
<path d="M2005 478 c7 -36 12 -44 21 -35 4 4 2 13 -5 21 -9 11 -9 15 0 18 14
5 4 28 -12 28 -5 0 -7 -14 -4 -32z"/>
<path d="M155 490 c-3 -5 -1 -10 4 -10 6 0 11 5 11 10 0 6 -2 10 -4 10 -3 0
-8 -4 -11 -10z"/>
<path d="M635 490 c3 -5 8 -10 11 -10 2 0 4 5 4 10 0 6 -5 10 -11 10 -5 0 -7
-4 -4 -10z"/>
<path d="M2065 491 c3 -5 1 -12 -5 -16 -5 -3 -10 -11 -10 -18 0 -6 7 -2 15 9
17 23 19 34 4 34 -5 0 -8 -4 -4 -9z"/>
<path d="M2306 483 c-6 -14 -5 -15 5 -6 7 7 10 15 7 18 -3 3 -9 -2 -12 -12z"/>
<path d="M2501 469 c19 -27 23 -29 31 -14 12 20 1 35 -11 16 -7 -10 -10 -9
-16 8 -3 11 -11 21 -16 21 -6 0 0 -14 12 -31z"/>
<path d="M2814 489 c-3 -6 -2 -15 3 -20 5 -5 9 -1 9 11 0 23 -2 24 -12 9z"/>
<path d="M3880 490 c0 -5 4 -10 9 -10 6 0 13 5 16 10 3 6 -1 10 -9 10 -9 0
-16 -4 -16 -10z"/>
<path d="M0 475 c0 -15 37 -45 56 -45 7 0 10 8 7 21 -4 15 -8 17 -14 8 -6 -11
-9 -10 -14 3 -9 22 -35 32 -35 13z"/>
<path d="M58 483 c7 -3 16 -2 19 1 4 3 -2 6 -13 5 -11 0 -14 -3 -6 -6z"/>
<path d="M1890 474 c0 -8 5 -12 10 -9 6 3 10 10 10 16 0 5 -4 9 -10 9 -5 0
-10 -7 -10 -16z"/>
<path d="M2235 481 c-3 -5 -1 -12 5 -16 5 -3 10 1 10 9 0 18 -6 21 -15 7z"/>
<path d="M3955 478 c-4 -10 -4 -26 0 -35 8 -17 8 -17 12 0 3 9 3 25 0 35 -4
16 -4 16 -12 0z"/>
<path d="M4119 470 c-31 -25 -12 -26 21 0 14 11 20 20 14 20 -7 0 -22 -9 -35
-20z"/>
<path d="M2102 471 c-11 -7 -11 -9 2 -14 10 -4 16 -1 16 8 0 17 -1 17 -18 6z"/>
<path d="M2410 470 c0 -6 -7 -10 -16 -8 -10 2 -19 -2 -21 -8 -5 -16 43 -5 58
12 9 11 8 14 -5 14 -9 0 -16 -5 -16 -10z"/>
<path d="M2620 470 c-12 -7 -10 -9 8 -7 12 0 22 5 22 9 0 11 -12 10 -30 -2z"/>
<path d="M3118 468 c5 -5 16 -8 23 -6 8 3 3 7 -10 11 -17 4 -21 3 -13 -5z"/>
<path d="M3355 470 c3 -5 8 -10 11 -10 2 0 4 5 4 10 0 6 -5 10 -11 10 -5 0 -7
-4 -4 -10z"/>
<path d="M4000 474 c0 -3 9 -17 20 -31 11 -14 20 -21 20 -14 0 6 -9 20 -20 31
-11 11 -20 17 -20 14z"/>
<path d="M600 460 c0 -5 5 -10 11 -10 5 0 7 5 4 10 -3 6 -8 10 -11 10 -2 0 -4
-4 -4 -10z"/>
<path d="M1590 454 c0 -8 5 -12 10 -9 6 4 8 11 5 16 -9 14 -15 11 -15 -7z"/>
<path d="M3235 450 c2 -14 5 -32 5 -40 0 -11 3 -10 11 4 7 12 8 21 2 25 -6 3
-13 13 -17 21 -3 8 -4 4 -1 -10z"/>
<path d="M3421 454 c6 -7 17 -10 25 -7 18 7 10 16 -16 18 -15 1 -17 -1 -9 -11z"/>
<path d="M3496 445 c15 -14 29 -23 32 -20 5 5 -39 44 -51 45 -4 0 4 -11 19
-25z"/>
<path d="M1801 444 c0 -11 3 -14 6 -6 3 7 2 16 -1 19 -3 4 -6 -2 -5 -13z"/>
<path d="M2170 451 c0 -5 -9 -11 -20 -14 -31 -8 -25 -37 10 -43 16 -4 29 -9
28 -13 0 -3 0 -15 1 -25 1 -15 4 -17 13 -8 9 9 8 21 -4 51 -11 28 -13 42 -5
50 8 8 6 11 -6 11 -9 0 -17 -4 -17 -9z m5 -31 c3 -6 -1 -7 -9 -4 -18 7 -21 14
-7 14 6 0 13 -4 16 -10z"/>
<path d="M2925 450 c3 -5 8 -10 11 -10 2 0 4 5 4 10 0 6 -5 10 -11 10 -5 0 -7
-4 -4 -10z"/>
<path d="M3852 449 c2 -6 8 -10 13 -10 5 0 11 4 13 10 2 6 -4 11 -13 11 -9 0
-15 -5 -13 -11z"/>
<path d="M1698 443 c6 -2 18 -2 25 0 6 3 1 5 -13 5 -14 0 -19 -2 -12 -5z"/>
<path d="M1845 441 c-3 -5 -1 -12 5 -16 5 -3 10 1 10 9 0 18 -6 21 -15 7z"/>
<path d="M2483 425 c-8 -17 -8 -27 -1 -32 6 -3 8 -1 4 5 -3 5 -1 12 5 14 6 2
10 11 8 21 -3 13 -6 12 -16 -8z"/>
<path d="M2600 440 c0 -5 5 -10 11 -10 5 0 7 5 4 10 -3 6 -8 10 -11 10 -2 0
-4 -4 -4 -10z"/>
<path d="M3670 425 c-7 -9 -11 -18 -8 -20 3 -3 11 1 18 10 7 9 11 18 8 20 -3
3 -11 -1 -18 -10z"/>
<path d="M226 415 c-23 -18 -40 -20 -30 -4 3 6 -8 4 -24 -5 -17 -9 -37 -13
-45 -10 -8 3 -21 -5 -29 -18 -9 -13 -34 -32 -56 -42 -28 -13 -40 -24 -39 -37
1 -11 4 -18 7 -17 98 50 136 77 88 63 -19 -5 -20 -4 -8 5 27 20 92 51 96 47 3
-3 -10 -14 -28 -26 -18 -11 -26 -21 -18 -21 10 0 11 -3 3 -11 -6 -6 -9 -18 -5
-27 4 -11 1 -14 -10 -9 -12 4 -14 1 -11 -13 4 -16 8 -17 23 -8 21 13 50 -4 50
-28 0 -17 -17 -18 -23 -1 -3 9 -7 9 -17 0 -9 -8 -7 -13 9 -18 12 -3 19 -11 15
-16 -3 -5 -9 -7 -14 -4 -5 3 -11 1 -15 -5 -3 -5 1 -10 9 -10 9 0 16 -9 16 -20
0 -11 4 -20 9 -20 5 0 11 -9 14 -21 7 -27 -3 -89 -15 -89 -5 0 -7 8 -4 18 3
10 -5 30 -19 47 -19 23 -25 26 -25 13 0 -10 -3 -18 -7 -18 -5 0 -8 -13 -8 -30
0 -16 3 -30 8 -30 4 0 7 9 7 20 0 11 5 20 11 20 6 0 8 -9 4 -20 -4 -13 -1 -22
10 -26 10 -4 13 -13 10 -25 -5 -16 -1 -19 28 -19 27 0 36 5 40 21 l6 20 20
-20 c15 -15 34 -21 63 -21 l42 0 -22 20 c-26 25 -26 27 -7 46 19 20 20 65 2
58 -8 -3 -19 2 -26 10 -11 12 -9 15 11 13 27 -1 38 -14 38 -44 0 -13 4 -23 10
-23 15 0 31 37 23 56 -4 11 -3 15 5 10 6 -3 13 -2 17 4 3 5 -3 10 -14 10 -12
0 -21 4 -21 9 0 5 -8 7 -19 4 -10 -3 -22 0 -25 6 -4 6 -2 11 3 11 7 0 7 7 -1
20 -7 11 -21 20 -30 20 -10 0 -18 5 -18 10 0 6 -7 10 -15 10 -8 0 -15 -5 -15
-11 0 -5 3 -8 8 -5 4 2 15 -9 24 -25 23 -39 14 -37 -28 7 -37 40 -39 45 -23
61 7 7 3 9 -16 6 -31 -6 -61 17 -68 53 -3 20 4 29 44 54 27 16 49 32 49 35 0
7 -3 6 -24 -10z m-146 -80 c0 -6 -56 -35 -67 -35 -9 0 48 38 60 39 4 1 7 -1 7
-4z m154 -141 c5 -14 4 -15 -9 -4 -17 14 -19 20 -6 20 5 0 12 -7 15 -16z m1
-71 c1 -10 7 -17 12 -16 5 1 10 -11 10 -28 0 -16 -1 -28 -3 -27 -15 18 -43 82
-38 89 8 13 15 6 19 -18z m67 -55 c-15 -15 -24 -6 -16 16 5 12 10 14 17 7 8
-8 8 -14 -1 -23z"/>
<path d="M2065 420 c3 -5 8 -10 11 -10 2 0 4 5 4 10 0 6 -5 10 -11 10 -5 0 -7
-4 -4 -10z"/>
<path d="M2560 420 c0 -5 -8 -10 -17 -10 -10 0 -25 -5 -33 -11 -13 -9 -13 -10
0 -6 8 2 25 0 38 -4 19 -7 22 -5 22 16 0 14 -2 25 -5 25 -3 0 -5 -4 -5 -10z"/>
<path d="M3010 410 c-11 -7 -8 -11 13 -19 46 -18 107 -25 107 -13 0 11 -17 18
-62 26 -15 3 -31 7 -36 10 -4 2 -14 1 -22 -4z"/>
<path d="M3940 414 c0 -7 27 -34 35 -34 3 0 1 9 -5 20 -10 18 -30 28 -30 14z"/>
<path d="M2245 399 c-4 -6 -5 -12 -2 -15 2 -3 7 2 10 11 7 17 1 20 -8 4z"/>
<path d="M2376 397 c3 -10 9 -15 12 -12 3 3 0 11 -7 18 -10 9 -11 8 -5 -6z"/>
<path d="M2411 405 c0 -5 11 -21 26 -35 21 -19 25 -21 20 -7 -4 10 -7 21 -7
23 0 2 -6 4 -14 4 -8 0 -17 6 -19 13 -3 6 -6 8 -6 2z"/>
<path d="M2670 400 c0 -5 5 -10 11 -10 5 0 7 5 4 10 -3 6 -8 10 -11 10 -2 0
-4 -4 -4 -10z"/>
<path d="M4044 402 c3 -5 0 -13 -6 -15 -8 -3 -6 -6 5 -6 19 -1 23 14 5 25 -6
4 -8 3 -4 -4z"/>
<path d="M1791 393 c0 -5 4 -17 9 -28 8 -18 9 -17 9 8 1 15 -3 27 -9 27 -5 0
-10 -3 -9 -7z"/>
<path d="M1857 393 c-10 -9 -9 -23 2 -23 5 0 11 7 15 15 5 15 -5 20 -17 8z"/>
<path d="M2305 390 c4 -6 11 -8 16 -5 14 9 11 15 -7 15 -8 0 -12 -5 -9 -10z"/>
<path d="M2591 385 c0 -11 4 -29 9 -40 l9 -20 0 20 c0 11 -4 29 -9 40 l-9 20
0 -20z"/>
<path d="M3230 382 c6 -13 14 -21 18 -18 3 4 -2 14 -12 24 -18 16 -18 16 -6
-6z"/>
<path d="M3285 390 c3 -5 8 -10 11 -10 2 0 4 5 4 10 0 6 -5 10 -11 10 -5 0 -7
-4 -4 -10z"/>
<path d="M3790 378 c0 -19 2 -20 10 -8 7 12 12 8 21 -17 10 -31 29 -45 29 -23
0 6 -4 10 -9 10 -5 0 -11 14 -14 30 -8 36 -37 42 -37 8z"/>
<path d="M4090 391 c0 -6 6 -8 14 -5 8 3 16 -2 20 -13 4 -15 5 -15 3 2 -2 20
-37 35 -37 16z"/>
<path d="M270 380 c0 -5 5 -10 11 -10 5 0 7 5 4 10 -3 6 -8 10 -11 10 -2 0 -4
-4 -4 -10z"/>
<path d="M380 381 c0 -5 7 -11 15 -15 8 -3 15 -1 15 3 0 5 -7 11 -15 15 -8 3
-15 1 -15 -3z"/>
<path d="M3723 369 c-1 -11 4 -19 12 -19 8 0 18 -7 23 -16 13 -24 26 1 13 25
-15 26 -47 33 -48 10z"/>
<path d="M3852 377 c-11 -12 -8 -17 19 -26 40 -14 39 -14 39 4 0 8 -9 15 -19
15 -11 0 -21 5 -23 11 -2 7 -8 6 -16 -4z"/>
<path d="M2020 369 c0 -5 5 -7 10 -4 6 3 10 8 10 11 0 2 -4 4 -10 4 -5 0 -10
-5 -10 -11z"/>
<path d="M2284 365 c3 -8 1 -15 -3 -15 -9 0 -24 -30 -18 -36 5 -5 47 35 47 45
0 5 -7 12 -16 15 -12 4 -15 2 -10 -9z"/>
<path d="M2764 368 c-3 -4 2 -8 10 -8 9 0 19 0 23 -1 4 0 9 3 10 8 4 11 -37
12 -43 1z"/>
<path d="M2946 367 c3 -10 9 -15 12 -12 3 3 0 11 -7 18 -10 9 -11 8 -5 -6z"/>
<path d="M3472 356 c-31 -22 -33 -36 -5 -36 7 0 13 9 13 21 0 11 4 18 9 14 5
-3 13 0 16 6 13 20 -2 19 -33 -5z"/>
<path d="M4000 370 c0 -5 5 -10 11 -10 5 0 7 5 4 10 -3 6 -8 10 -11 10 -2 0
-4 -4 -4 -10z"/>
<path d="M1600 361 c0 -6 4 -13 10 -16 6 -3 7 1 4 9 -7 18 -14 21 -14 7z"/>
<path d="M2630 359 c0 -5 5 -7 10 -4 6 3 10 8 10 11 0 2 -4 4 -10 4 -5 0 -10
-5 -10 -11z"/>
<path d="M3180 355 c0 -8 4 -15 10 -15 5 0 7 7 4 15 -4 8 -8 15 -10 15 -2 0
-4 -7 -4 -15z"/>
<path d="M3625 360 c3 -5 8 -10 11 -10 2 0 4 5 4 10 0 6 -5 10 -11 10 -5 0 -7
-4 -4 -10z"/>
<path d="M2390 352 c0 -5 7 -13 16 -16 10 -4 14 -1 12 6 -5 15 -28 23 -28 10z"/>
<path d="M2513 326 c-36 -36 -41 -49 -18 -40 9 4 15 0 15 -7 1 -8 7 -3 15 11
7 14 16 24 20 22 4 -2 9 -1 13 2 3 3 -3 6 -13 6 -17 0 -17 1 0 20 31 34 2 22
-32 -14z"/>
<path d="M341 328 c-1 -27 14 -46 27 -33 3 3 1 9 -5 13 -6 4 -13 16 -16 27 -4
16 -5 14 -6 -7z"/>
<path d="M3530 341 c0 -6 4 -11 9 -11 5 0 7 -10 4 -22 -5 -18 -3 -20 7 -12 6
7 10 20 8 30 -3 19 -28 32 -28 15z"/>
<path d="M3580 335 c-11 -13 -10 -14 4 -9 9 3 16 10 16 15 0 13 -6 11 -20 -6z"/>
<path d="M3935 340 c3 -5 8 -10 11 -10 2 0 4 5 4 10 0 6 -5 10 -11 10 -5 0 -7
-4 -4 -10z"/>
<path d="M1780 325 c-7 -9 -11 -17 -9 -20 3 -2 10 5 17 15 14 24 10 26 -8 5z"/>
<path d="M1990 325 c7 -9 15 -13 17 -11 7 7 -7 26 -19 26 -6 0 -6 -6 2 -15z"/>
<path d="M2220 330 c0 -6 -6 -10 -12 -10 -7 0 -19 -4 -26 -9 -12 -7 -12 -12
-1 -30 8 -11 18 -21 23 -21 6 0 5 5 -2 12 -19 19 -14 30 10 26 13 -2 24 -11
26 -23 2 -11 9 -24 14 -30 7 -7 8 1 4 25 -3 19 -7 40 -8 47 -2 15 -28 26 -28
13z"/>
<path d="M2437 326 c-4 -10 -5 -21 -2 -24 9 -9 17 6 13 25 -3 17 -4 17 -11 -1z"/>
<path d="M2980 331 c0 -5 5 -13 10 -16 6 -3 10 -2 10 4 0 5 -4 13 -10 16 -5 3
-10 2 -10 -4z"/>
<path d="M3629 333 c-1 -5 -1 -11 0 -15 0 -5 -3 -8 -9 -8 -5 0 -10 -4 -10 -10
0 -12 47 -13 54 -1 9 14 -4 41 -20 41 -8 0 -15 -3 -15 -7z"/>
<path d="M3980 330 c8 -5 20 -10 25 -10 6 0 3 5 -5 10 -8 5 -19 10 -25 10 -5
0 -3 -5 5 -10z"/>
<path d="M1556 315 c-3 -9 -6 -22 -5 -28 0 -7 5 -1 10 12 5 13 8 26 5 28 -2 2
-6 -3 -10 -12z"/>
<path d="M2020 320 c0 -5 5 -10 10 -10 6 0 10 5 10 10 0 6 -4 10 -10 10 -5 0
-10 -4 -10 -10z"/>
<path d="M4050 317 c0 -14 68 -43 78 -33 3 4 -5 17 -17 29 -13 12 -21 17 -17
10 3 -6 2 -14 -3 -17 -5 -3 -11 1 -15 9 -7 18 -26 20 -26 2z"/>
<path d="M1639 298 c5 -13 17 -24 27 -26 18 -3 18 -2 2 8 -10 6 -18 18 -18 25
0 8 -4 15 -10 15 -6 0 -6 -9 -1 -22z"/>
<path d="M2296 305 c-3 -8 -1 -15 4 -15 6 0 10 7 10 15 0 8 -2 15 -4 15 -2 0
-6 -7 -10 -15z"/>
<path d="M2340 310 c0 -5 5 -10 11 -10 5 0 7 5 4 10 -3 6 -8 10 -11 10 -2 0
-4 -4 -4 -10z"/>
<path d="M2390 310 c0 -5 5 -10 10 -10 6 0 10 5 10 10 0 6 -4 10 -10 10 -5 0
-10 -4 -10 -10z"/>
<path d="M2690 310 c0 -5 5 -10 11 -10 5 0 7 5 4 10 -3 6 -8 10 -11 10 -2 0
-4 -4 -4 -10z"/>
<path d="M3389 306 c6 -8 11 -18 10 -22 -3 -20 2 -32 17 -38 14 -5 15 -4 4 9
-10 13 -9 15 8 15 16 0 20 4 15 17 -4 11 -8 12 -11 5 -6 -18 -20 -14 -27 8 -3
11 -11 20 -17 20 -7 0 -6 -5 1 -14z"/>
<path d="M3591 304 c0 -11 3 -14 6 -6 3 7 2 16 -1 19 -3 4 -6 -2 -5 -13z"/>
<path d="M3674 295 c-4 -18 -13 -25 -29 -25 -13 0 -27 -5 -31 -11 -4 -7 -1
-10 7 -7 8 3 19 -2 26 -11 15 -19 17 -34 3 -26 -5 3 -10 2 -10 -3 0 -5 10 -12
21 -15 14 -4 20 -11 16 -21 -10 -24 15 -31 32 -9 9 11 22 18 29 15 11 -3 11 0
0 17 -15 24 -43 29 -35 6 4 -8 2 -17 -2 -20 -10 -6 -23 23 -16 35 3 5 1 11 -5
15 -14 9 -12 25 3 25 8 0 14 7 14 15 0 8 -5 11 -10 8 -5 -3 -7 0 -5 8 3 8 11
13 17 11 7 -1 10 2 6 8 -11 17 -24 11 -31 -15z"/>
<path d="M3770 305 c-7 -9 -20 -13 -30 -10 -10 3 -17 0 -17 -8 0 -9 7 -12 20
-9 12 3 25 -2 32 -12 13 -17 45 -13 45 6 0 6 -6 8 -13 5 -8 -3 -20 -1 -27 3
-11 7 -11 11 -1 24 8 9 11 16 8 16 -2 0 -10 -7 -17 -15z"/>
<path d="M3947 293 c-3 -15 -1 -36 4 -45 12 -23 -2 -23 -43 -2 -22 11 -33 13
-41 5 -12 -12 -1 -28 23 -33 8 -2 19 -8 25 -14 7 -7 20 -7 44 1 20 7 29 15 22
19 -16 10 -14 26 4 20 13 -5 13 -3 0 22 -8 16 -15 35 -15 42 0 23 -18 12 -23
-15z"/>
<path d="M1720 296 c0 -8 4 -17 9 -20 5 -4 7 3 4 14 -6 23 -13 26 -13 6z"/>
<path d="M3359 304 c6 -3 8 -11 5 -19 -3 -7 -1 -16 5 -20 7 -4 10 2 8 16 -2
13 -9 24 -16 25 -6 1 -7 0 -2 -2z"/>
<path d="M3569 295 c-4 -15 -7 -22 -17 -48 -16 -38 -15 -42 5 -22 15 16 29 75
18 75 -3 0 -6 -2 -6 -5z"/>
<path d="M3900 290 c0 -5 7 -10 16 -10 8 0 12 5 9 10 -3 6 -10 10 -16 10 -5 0
-9 -4 -9 -10z"/>
<path d="M3994 289 c-3 -6 0 -17 8 -25 13 -13 16 -13 27 0 8 10 9 16 1 21 -5
3 -10 1 -10 -4 0 -6 -5 -11 -11 -11 -6 0 -9 7 -5 15 6 17 0 20 -10 4z"/>
<path d="M290 280 c0 -5 5 -10 11 -10 5 0 7 5 4 10 -3 6 -8 10 -11 10 -2 0 -4
-4 -4 -10z"/>
<path d="M1757 274 c6 -16 19 -18 27 -5 3 5 -3 11 -13 14 -14 3 -18 1 -14 -9z"/>
<path d="M2114 272 c-19 -12 -22 -47 -5 -62 8 -8 16 -13 17 -10 4 10 43 -48
49 -73 4 -15 11 -27 16 -27 5 0 9 -7 9 -15 0 -8 -4 -15 -10 -15 -5 0 -10 -4
-10 -10 0 -5 8 -10 17 -10 13 0 14 -3 5 -12 -23 -23 -13 -35 33 -36 43 -1 45
0 45 26 0 19 -3 23 -9 13 -9 -14 -31 -7 -31 10 0 6 4 8 9 4 5 -3 12 -1 16 5 4
6 11 8 16 5 14 -9 50 5 43 16 -3 6 -12 8 -20 5 -8 -3 -14 -1 -14 5 0 6 -6 9
-12 6 -7 -2 -21 2 -30 11 -15 13 -18 13 -18 1 0 -8 5 -20 12 -27 9 -9 9 -12 0
-12 -19 0 -31 32 -19 52 9 13 8 21 -1 30 -10 10 -15 10 -22 -2 -7 -11 -11 -9
-19 13 -6 16 -11 33 -11 38 0 6 -5 7 -12 3 -7 -5 -9 -2 -5 9 3 9 -1 18 -10 21
-9 4 -13 14 -10 26 5 21 -1 25 -19 12z"/>
<path d="M2575 270 c-3 -5 -1 -10 4 -10 6 0 11 5 11 10 0 6 -2 10 -4 10 -3 0
-8 -4 -11 -10z"/>
<path d="M2630 270 c0 -5 5 -10 11 -10 5 0 7 5 4 10 -3 6 -8 10 -11 10 -2 0
-4 -4 -4 -10z"/>
<path d="M2766 265 c4 -8 13 -15 21 -15 13 0 13 3 3 15 -7 8 -16 15 -21 15 -5
0 -6 -7 -3 -15z"/>
<path d="M2840 271 c0 -7 -4 -9 -10 -6 -5 3 -10 1 -10 -4 0 -6 4 -11 9 -11 13
0 25 20 17 27 -3 4 -6 1 -6 -6z"/>
<path d="M2901 264 c0 -11 3 -14 6 -6 3 7 2 16 -1 19 -3 4 -6 -2 -5 -13z"/>
<path d="M1909 237 l-4 -38 -23 21 c-18 17 -23 18 -28 7 -3 -9 -13 -13 -25
-10 -13 4 -19 0 -19 -12 0 -12 5 -15 16 -11 11 4 15 2 11 -7 -3 -8 -1 -20 4
-28 6 -10 9 -10 9 -1 0 6 8 12 18 12 16 1 16 1 0 11 -25 14 -22 31 5 27 19 -3
22 -8 19 -38 -2 -21 1 -31 6 -25 17 19 28 70 22 100 -7 30 -7 30 -11 -8z"/>
<path d="M2460 253 c0 -14 2 -15 9 -4 5 8 14 10 21 6 9 -5 11 -4 6 3 -11 18
-36 14 -36 -5z"/>
<path d="M2736 255 c4 -8 10 -15 15 -15 4 0 6 7 3 15 -4 8 -10 15 -15 15 -4 0
-6 -7 -3 -15z"/>
<path d="M3065 260 c-3 -5 1 -10 9 -10 9 0 16 5 16 10 0 6 -4 10 -9 10 -6 0
-13 -4 -16 -10z"/>
<path d="M1511 244 c0 -11 3 -14 6 -6 3 7 2 16 -1 19 -3 4 -6 -2 -5 -13z"/>
<path d="M1702 248 c2 -6 10 -14 16 -16 7 -2 10 2 6 12 -7 18 -28 22 -22 4z"/>
<path d="M1825 251 c-3 -5 -1 -12 5 -16 5 -3 10 1 10 9 0 18 -6 21 -15 7z"/>
<path d="M1950 237 c0 -13 -5 -28 -12 -35 -10 -10 -7 -16 10 -28 13 -9 22 -23
20 -32 -1 -10 1 -23 6 -30 13 -22 -4 -29 -20 -8 -7 11 -16 17 -19 14 -7 -7 10
-54 19 -50 13 5 22 1 48 -22 15 -12 25 -25 22 -28 -3 -3 7 -9 22 -12 30 -8 33
-6 39 22 3 18 1 20 -19 12 -22 -8 -23 -6 -25 40 -1 27 3 51 9 55 5 3 10 11 10
16 0 6 -5 7 -11 4 -5 -4 -21 -4 -35 -1 -20 5 -23 10 -14 26 7 13 7 21 -2 26
-6 4 -8 3 -4 -4 3 -6 2 -13 -3 -16 -5 -3 -12 2 -15 11 -4 9 -2 19 3 23 6 3 2
13 -9 23 -19 16 -20 16 -20 -6z m64 -119 c16 -18 18 -58 1 -58 -17 0 -27 28
-12 33 9 3 8 8 -2 20 -16 20 -5 23 13 5z"/>
<path d="M3330 253 c0 -7 -6 -13 -13 -13 -22 0 -41 -45 -28 -66 9 -17 10 -18
11 -1 0 9 3 16 8 16 23 -4 34 3 28 17 -5 12 -2 15 11 9 45 -18 75 -23 100 -16
23 6 24 8 9 14 -10 4 -21 5 -26 2 -12 -7 -74 17 -87 34 -8 11 -12 12 -13 4z"/>
<path d="M3486 251 c-4 -7 -5 -15 -2 -18 9 -9 19 4 14 18 -4 11 -6 11 -12 0z"/>
<path d="M3710 246 c0 -9 5 -16 10 -16 6 0 10 4 10 9 0 6 -4 13 -10 16 -5 3
-10 -1 -10 -9z"/>
<path d="M3835 250 c-3 -5 -1 -10 4 -10 6 0 11 5 11 10 0 6 -2 10 -4 10 -3 0
-8 -4 -11 -10z"/>
<path d="M4107 240 c3 -11 9 -20 13 -20 5 0 6 9 3 20 -3 11 -9 20 -13 20 -5 0
-6 -9 -3 -20z"/>
<path d="M693 234 c0 -9 7 -12 19 -8 10 3 18 1 18 -5 0 -6 -5 -11 -10 -11 -6
0 -1 -10 10 -22 19 -21 19 -23 4 -29 -16 -5 -16 -6 -1 -12 8 -3 17 -1 20 6 2
8 9 6 21 -6 20 -19 36 -22 36 -6 0 5 -4 7 -10 4 -6 -4 -10 5 -10 19 0 27 -15
35 -23 14 -3 -7 -4 0 -4 16 2 24 -3 30 -34 41 -30 11 -36 11 -36 -1z"/>
<path d="M2060 241 c0 -6 5 -13 10 -16 6 -3 10 1 10 9 0 9 -4 16 -10 16 -5 0
-10 -4 -10 -9z"/>
<path d="M3507 230 c-3 -10 1 -24 7 -29 10 -8 11 -3 8 19 -5 35 -8 37 -15 10z"/>
<path d="M3747 236 c-7 -17 1 -26 22 -25 12 0 11 3 -4 9 -11 5 -14 9 -7 9 6 1
12 6 12 11 0 15 -17 12 -23 -4z"/>
<path d="M4026 242 c-8 -13 8 -28 33 -29 l24 -2 -21 20 c-23 21 -29 23 -36 11z"/>
<path d="M4148 243 c7 -3 16 -2 19 1 4 3 -2 6 -13 5 -11 0 -14 -3 -6 -6z"/>
<path d="M1672 220 c-6 -11 -12 -28 -12 -39 0 -10 -7 -21 -15 -24 -11 -5 -13
1 -10 26 3 18 2 25 -1 17 -13 -29 -36 -49 -51 -43 -12 5 -13 2 -5 -13 13 -24
11 -74 -3 -74 -5 0 -4 -4 3 -8 17 -11 4 -42 -14 -35 -8 3 -14 -1 -14 -11 0 -9
8 -16 20 -16 11 0 20 5 20 11 0 5 5 7 10 4 6 -3 10 -1 10 4 0 6 -4 11 -9 11
-6 0 -6 12 -1 29 4 16 6 32 2 35 -3 3 0 6 6 6 6 0 9 6 6 14 -7 18 27 31 38 14
10 -17 10 -26 -2 -33 -6 -4 -8 -11 -5 -16 4 -5 2 -9 -3 -9 -5 0 -9 -11 -9 -25
0 -14 3 -25 7 -25 11 0 20 26 20 56 0 17 6 24 20 24 11 0 20 -4 20 -10 0 -5
-7 -10 -15 -10 -8 0 -15 -4 -15 -10 0 -5 7 -7 16 -3 10 4 15 1 14 -8 -5 -31 1
-59 11 -59 6 0 8 7 5 16 -3 8 -2 13 2 10 4 -3 13 4 20 15 7 11 8 19 2 19 -5 0
-2 8 8 18 9 11 25 18 35 16 9 -2 17 1 17 5 0 14 -37 20 -49 8 -8 -8 -11 -6
-11 6 0 9 -5 17 -11 17 -6 0 -9 -7 -5 -15 6 -17 -9 -21 -20 -4 -3 6 -1 16 5
22 6 6 11 17 11 25 0 12 -3 12 -15 2 -8 -7 -15 -19 -15 -28 0 -29 -13 -3 -17
34 -3 30 -1 35 12 30 8 -3 21 -9 29 -12 8 -3 16 3 19 15 4 15 13 21 33 21 20
0 25 3 18 10 -12 12 -64 -6 -64 -22 0 -16 -21 -8 -28 12 -7 20 -7 20 -20 0z"/>
<path d="M2185 230 c-3 -5 -1 -10 4 -10 6 0 11 5 11 10 0 6 -2 10 -4 10 -3 0
-8 -4 -11 -10z"/>
<path d="M2234 228 c3 -10 1 -18 -4 -18 -6 0 -9 -10 -9 -22 1 -18 2 -19 6 -5
2 9 9 15 14 12 12 -8 11 17 -2 35 -9 13 -10 12 -5 -2z"/>
<path d="M1560 222 c0 -11 37 -41 43 -35 6 6 -24 43 -35 43 -5 0 -8 -3 -8 -8z"/>
<path d="M2850 215 c-16 -19 -4 -35 26 -35 13 0 24 -5 24 -10 0 -6 11 -8 28
-4 43 10 46 21 8 28 -22 4 -36 13 -36 21 0 19 -34 19 -50 0z"/>
<path d="M3566 211 c-15 -16 -15 -19 -1 -24 10 -4 15 0 15 12 0 11 6 22 13 24
7 3 7 6 1 6 -6 1 -19 -7 -28 -18z"/>
<path d="M3830 210 c6 -11 12 -20 14 -20 2 0 2 9 -1 20 -3 11 -9 20 -15 20 -5
0 -4 -9 2 -20z"/>
<path d="M2297 213 c-4 -3 -7 -11 -7 -17 0 -6 5 -5 12 2 6 6 9 14 7 17 -3 3
-9 2 -12 -2z"/>
<path d="M2331 215 c-1 -15 28 -49 35 -42 10 9 -4 39 -15 33 -5 -4 -12 0 -14
6 -3 7 -6 9 -6 3z"/>
<path d="M2720 212 c0 -7 -6 -12 -14 -12 -8 0 -17 -4 -20 -9 -3 -5 0 -9 7 -8
32 1 47 -4 47 -16 0 -26 29 -14 40 16 5 17 8 32 6 35 -8 7 -26 -9 -21 -19 10
-15 -7 -10 -27 8 -11 9 -18 11 -18 5z"/>
<path d="M2935 210 c3 -5 11 -10 16 -10 6 0 7 5 4 10 -3 6 -11 10 -16 10 -6 0
-7 -4 -4 -10z"/>
<path d="M1747 203 c-4 -3 -7 -11 -7 -17 0 -6 5 -5 12 2 6 6 9 14 7 17 -3 3
-9 2 -12 -2z"/>
<path d="M1780 200 c0 -5 5 -10 11 -10 5 0 7 5 4 10 -3 6 -8 10 -11 10 -2 0
-4 -4 -4 -10z"/>
<path d="M2026 202 c-3 -6 -1 -14 5 -17 14 -9 20 -2 10 14 -6 8 -11 9 -15 3z"/>
<path d="M3803 193 c9 -11 17 -25 17 -32 0 -17 23 -9 28 10 3 11 2 11 -7 -1
-10 -13 -11 -13 -11 0 0 8 -10 21 -22 29 -22 13 -23 13 -5 -6z"/>
<path d="M2416 191 c-4 -5 -2 -21 4 -36 13 -35 54 -32 57 5 1 14 -1 17 -3 8
-7 -22 -34 -12 -34 13 0 20 -15 26 -24 10z"/>
<path d="M3600 190 c-12 -8 -10 -10 8 -10 13 0 20 4 17 10 -7 12 -6 12 -25 0z"/>
<path d="M4056 191 c-3 -5 1 -11 9 -14 9 -4 12 -1 8 9 -6 16 -10 17 -17 5z"/>
<path d="M4096 191 c-3 -5 0 -11 7 -14 8 -3 14 1 14 9 0 16 -13 19 -21 5z"/>
<path d="M4134 176 c0 -15 7 -26 14 -26 15 0 15 10 -2 33 -13 17 -14 16 -12
-7z"/>
<path d="M1555 180 c-3 -5 -1 -10 4 -10 6 0 11 5 11 10 0 6 -2 10 -4 10 -3 0
-8 -4 -11 -10z"/>
<path d="M2495 180 c-3 -5 -1 -10 4 -10 6 0 11 5 11 10 0 6 -2 10 -4 10 -3 0
-8 -4 -11 -10z"/>
<path d="M3865 180 c-2 -3 -1 -11 3 -17 5 -8 15 -6 32 7 l24 18 -28 -1 c-15
-1 -29 -4 -31 -7z"/>
<path d="M3935 180 c3 -6 1 -10 -5 -10 -6 0 -9 -8 -6 -17 3 -10 1 -25 -4 -33
-8 -12 -10 -11 -10 7 0 19 -3 21 -22 14 -13 -4 -26 -19 -30 -32 -7 -23 -7 -23
-4 3 2 23 -1 26 -21 25 -13 -1 -22 -7 -21 -12 2 -6 6 -9 11 -7 4 1 7 -4 7 -11
0 -8 11 -19 25 -25 20 -9 26 -9 24 1 -4 34 1 38 26 20 13 -10 25 -25 25 -33 0
-10 3 -11 8 -4 4 6 18 11 32 10 19 -1 24 3 22 17 -2 9 2 17 8 17 5 0 10 -5 10
-11 0 -6 7 -8 15 -5 11 4 19 -3 25 -20 13 -33 2 -49 -32 -49 -16 0 -29 -4 -30
-10 -2 -6 25 -11 65 -11 37 -1 67 2 67 7 0 5 11 7 25 5 23 -4 25 -1 25 29 0
26 -5 34 -24 39 -28 7 -42 33 -18 33 10 0 23 -4 30 -10 8 -7 12 -5 12 7 0 10
-9 16 -25 16 -38 0 -39 0 -57 17 -15 13 -19 13 -40 -1 -32 -22 -55 -20 -73 8
-15 23 -53 48 -40 26z m33 -55 c6 -14 10 -25 7 -25 -7 0 -35 32 -35 41 0 18
17 9 28 -16z m120 4 c17 -27 10 -34 -20 -18 -14 8 -18 14 -10 17 6 2 10 8 6
13 -3 5 -1 9 3 9 5 0 14 -9 21 -21z m22 -49 c0 -5 -2 -10 -4 -10 -3 0 -8 5
-11 10 -3 6 -1 10 4 10 6 0 11 -4 11 -10z m-18 -28 c3 -10 -1 -23 -9 -30 -11
-11 -13 -7 -13 18 0 33 15 41 22 12z m48 4 c0 -2 -7 -7 -16 -10 -8 -3 -12 -2
-9 4 6 10 25 14 25 6z"/>
<path d="M1750 165 c-11 -13 -10 -14 4 -9 9 3 16 10 16 15 0 13 -6 11 -20 -6z"/>
<path d="M1786 173 c-3 -4 0 -13 7 -21 9 -13 9 -14 0 -8 -7 4 -13 2 -13 -3 0
-19 27 -12 33 8 5 19 -15 36 -27 24z"/>
<path d="M3760 172 c0 -6 5 -14 10 -17 8 -5 7 -12 -1 -22 -11 -12 -14 -12 -21
1 -10 18 -49 22 -45 5 3 -17 -30 -19 -44 -3 -13 16 -49 19 -49 4 0 -5 -5 -10
-11 -10 -5 0 -7 5 -3 12 5 8 2 9 -10 5 -10 -4 -20 -7 -22 -7 -2 0 -4 -4 -4
-10 0 -5 7 -7 15 -4 9 4 19 -3 26 -20 7 -14 16 -26 20 -26 10 0 49 -41 49 -52
0 -4 -4 -8 -10 -8 -5 0 -10 7 -10 16 0 8 -4 12 -10 9 -14 -9 11 -45 32 -45 9
0 19 6 21 13 4 9 6 9 6 0 1 -7 10 -13 21 -13 29 0 28 46 -1 53 -12 3 -18 10
-14 16 3 6 -4 15 -17 20 l-23 10 26 0 c14 1 30 6 37 13 9 9 12 7 12 -9 0 -12
-5 -23 -11 -25 -7 -2 -4 -10 7 -18 16 -13 17 -13 11 2 -9 24 6 30 29 13 10 -8
24 -14 29 -14 6 0 2 6 -8 13 -19 15 -24 41 -13 67 4 9 0 21 -9 29 -9 8 -15 8
-15 2z m-110 -57 c7 -9 10 -18 7 -21 -6 -7 -47 18 -47 28 0 14 27 9 40 -7z"/>
<path d="M2085 160 c3 -5 8 -10 11 -10 2 0 4 5 4 10 0 6 -5 10 -11 10 -5 0 -7
-4 -4 -10z"/>
<path d="M2248 143 c5 -21 7 -23 10 -9 2 10 0 22 -6 28 -6 6 -7 0 -4 -19z"/>
<path d="M2865 160 c-3 -5 -1 -10 4 -10 6 0 11 5 11 10 0 6 -2 10 -4 10 -3 0
-8 -4 -11 -10z"/>
<path d="M3475 160 c3 -5 8 -10 11 -10 2 0 4 5 4 10 0 6 -5 10 -11 10 -5 0 -7
-4 -4 -10z"/>
<path d="M85 150 c-3 -5 -1 -10 4 -10 6 0 11 5 11 10 0 6 -2 10 -4 10 -3 0 -8
-4 -11 -10z"/>
<path d="M440 151 c0 -5 7 -12 16 -15 24 -9 27 -7 10 9 -17 17 -26 19 -26 6z"/>
<path d="M2124 144 c3 -9 6 -19 6 -22 0 -9 20 21 20 31 0 4 -7 7 -16 7 -11 0
-14 -5 -10 -16z"/>
<path d="M2367 153 c-20 -5 -13 -23 9 -23 8 0 13 4 10 9 -4 5 0 12 6 14 16 7
0 6 -25 0z"/>
<path d="M2560 156 c0 -2 7 -7 16 -10 8 -3 12 -2 9 4 -6 10 -25 14 -25 6z"/>
<path d="M3030 153 c0 -4 5 -15 10 -23 8 -13 10 -13 10 2 0 9 -4 20 -10 23 -5
3 -10 3 -10 -2z"/>
<path d="M3100 141 c0 -12 5 -21 10 -21 6 0 10 6 10 14 0 8 -4 18 -10 21 -5 3
-10 -3 -10 -14z"/>
<path d="M3416 143 c-4 -9 -4 -18 -1 -21 3 -3 5 0 5 6 0 17 16 15 34 -4 9 -8
16 -11 16 -6 0 5 -11 17 -24 25 -22 15 -25 15 -30 0z"/>
<path d="M1520 139 c0 -5 5 -7 10 -4 6 3 10 8 10 11 0 2 -4 4 -10 4 -5 0 -10
-5 -10 -11z"/>
<path d="M1822 115 c1 -40 8 -40 12 -1 2 15 0 29 -5 32 -5 2 -8 -11 -7 -31z"/>
<path d="M2278 143 c7 -3 16 -2 19 1 4 3 -2 6 -13 5 -11 0 -14 -3 -6 -6z"/>
<path d="M2606 141 c-3 -5 2 -15 12 -22 15 -13 16 -12 4 3 -10 13 -10 17 0 21
9 4 9 6 1 6 -6 1 -14 -3 -17 -8z"/>
<path d="M2970 140 c0 -5 5 -10 11 -10 5 0 7 5 4 10 -3 6 -8 10 -11 10 -2 0
-4 -4 -4 -10z"/>
<path d="M3147 144 c-4 -4 -7 -14 -7 -23 0 -11 3 -12 11 -4 6 6 10 16 7 23 -2
6 -7 8 -11 4z"/>
<path d="M3506 141 c-4 -7 -5 -15 -2 -18 9 -9 19 4 14 18 -4 11 -6 11 -12 0z"/>
<path d="M1850 113 c-1 -32 -27 -73 -38 -58 -4 6 -17 11 -29 12 -20 2 -21 0
-11 -22 6 -13 15 -22 20 -19 4 3 5 10 2 16 -4 6 3 5 15 -2 18 -9 20 -14 10
-26 -6 -8 -7 -14 -3 -14 15 0 34 38 28 54 -3 8 -1 17 5 21 6 3 11 0 11 -7 0
-10 2 -10 9 1 8 12 11 12 24 -1 12 -11 13 -18 4 -27 -8 -8 -8 -11 0 -11 7 0
14 4 17 9 3 5 16 7 29 5 l22 -5 -22 17 c-13 9 -23 23 -23 30 0 8 -7 14 -15 14
-8 0 -15 8 -16 18 0 10 -3 12 -6 5 -2 -7 -9 -13 -14 -13 -6 0 -8 4 -4 9 3 5 1
12 -5 16 -6 4 -10 -5 -10 -22z"/>
<path d="M2325 130 c-3 -5 1 -10 10 -10 9 0 13 5 10 10 -3 6 -8 10 -10 10 -2
0 -7 -4 -10 -10z"/>
<path d="M2530 130 c0 -5 7 -10 16 -10 8 0 12 5 9 10 -3 6 -10 10 -16 10 -5 0
-9 -4 -9 -10z"/>
<path d="M3193 127 c4 -10 7 -23 7 -28 0 -5 5 -9 10 -9 16 0 12 26 -7 41 -15
12 -16 12 -10 -4z"/>
<path d="M425 120 c3 -5 8 -10 11 -10 2 0 4 5 4 10 0 6 -5 10 -11 10 -5 0 -7
-4 -4 -10z"/>
<path d="M930 121 c0 -6 4 -13 10 -16 6 -3 7 1 4 9 -7 18 -14 21 -14 7z"/>
<path d="M2682 118 c5 -15 28 -23 28 -10 0 5 -7 13 -16 16 -10 4 -14 1 -12 -6z"/>
<path d="M2820 120 c0 -5 5 -10 11 -10 5 0 7 5 4 10 -3 6 -8 10 -11 10 -2 0
-4 -4 -4 -10z"/>
<path d="M3360 120 c0 -5 5 -10 10 -10 6 0 10 5 10 10 0 6 -4 10 -10 10 -5 0
-10 -4 -10 -10z"/>
<path d="M1477 100 c-4 -17 -2 -20 15 -14 17 5 19 3 14 -14 -8 -25 2 -32 29
-21 17 6 17 8 3 8 -19 1 -26 31 -8 31 6 0 10 7 10 15 0 17 -16 20 -25 5 -3 -5
-11 -10 -16 -10 -6 0 -7 5 -4 10 3 6 2 10 -3 10 -5 0 -12 -9 -15 -20z"/>
<path d="M3171 104 c0 -11 3 -14 6 -6 3 7 2 16 -1 19 -3 4 -6 -2 -5 -13z"/>
<path d="M2420 106 c0 -2 7 -9 15 -16 12 -10 15 -10 15 4 0 9 -7 16 -15 16 -8
0 -15 -2 -15 -4z"/>
<path d="M2456 81 c-9 -16 -12 -32 -7 -35 10 -6 37 52 28 60 -3 3 -13 -8 -21
-25z"/>
<path d="M2525 93 c-11 -11 -14 -18 -6 -21 6 -2 9 -8 5 -13 -3 -5 0 -9 5 -9 6
0 10 -10 8 -22 -1 -17 4 -24 22 -26 15 -2 21 0 16 7 -3 6 -11 8 -17 5 -8 -5
-9 -1 -4 11 4 11 0 25 -11 37 -15 16 -15 21 -3 28 8 5 12 12 8 15 -3 3 -14 -2
-23 -12z"/>
<path d="M2579 110 c-10 -64 -8 -80 6 -80 8 0 15 -4 15 -10 0 -5 5 -10 10 -10
6 0 8 11 4 27 -7 27 -33 82 -35 73z"/>
<path d="M2872 84 c-19 -18 -20 -23 -7 -28 8 -3 15 -14 15 -25 0 -10 8 -22 18
-26 14 -5 15 -4 5 6 -28 28 -3 83 28 63 5 -3 9 2 9 11 0 9 -5 13 -10 10 -6 -4
-16 -3 -23 2 -8 6 -20 2 -35 -13z"/>
<path d="M3010 101 c0 -5 7 -12 16 -15 14 -5 15 -4 4 9 -14 17 -20 19 -20 6z"/>
<path d="M3486 95 c-3 -8 -1 -15 3 -15 5 0 11 7 15 15 3 8 1 15 -3 15 -5 0
-11 -7 -15 -15z"/>
<path d="M2101 86 c-8 -10 -9 -16 -1 -21 6 -3 8 -11 5 -16 -4 -5 3 -9 14 -9
12 0 21 -4 21 -9 0 -15 -18 -23 -25 -11 -7 12 -25 4 -25 -11 0 -14 51 -7 68 8
17 16 15 20 -14 27 -20 5 -25 12 -21 26 6 25 -7 34 -22 16z"/>
<path d="M2623 71 c8 -23 13 -28 15 -16 2 10 -3 25 -12 33 -14 15 -15 13 -3
-17z"/>
<path d="M2800 91 c0 -5 7 -14 15 -21 12 -10 15 -10 15 3 0 8 -7 17 -15 21 -8
3 -15 2 -15 -3z"/>
<path d="M2970 83 c0 -10 4 -14 8 -8 4 6 11 13 16 18 5 4 2 7 -7 7 -10 0 -17
-8 -17 -17z"/>
<path d="M3230 93 c0 -5 4 -14 9 -22 9 -14 31 -7 31 10 0 6 -4 7 -10 4 -5 -3
-10 -1 -10 4 0 6 -4 11 -10 11 -5 0 -10 -3 -10 -7z"/>
<path d="M3400 90 c0 -5 5 -10 11 -10 5 0 7 5 4 10 -3 6 -8 10 -11 10 -2 0 -4
-4 -4 -10z"/>
<path d="M840 82 c0 -4 9 -13 19 -19 16 -10 18 -9 14 8 -5 18 -33 28 -33 11z"/>
<path d="M2067 83 c-4 -3 -7 -11 -7 -17 0 -6 5 -5 12 2 6 6 9 14 7 17 -3 3 -9
2 -12 -2z"/>
<path d="M3358 82 c-22 -4 -24 -32 -3 -32 10 0 15 -10 15 -27 0 -32 14 -20 24
18 7 30 -9 48 -36 41z"/>
<path d="M3126 63 c-6 -14 -5 -15 5 -6 7 7 10 15 7 18 -3 3 -9 -2 -12 -12z"/>
<path d="M3548 64 c-7 -29 26 -69 49 -58 16 7 16 8 -3 11 -14 3 -25 15 -31 36
-8 28 -10 29 -15 11z"/>
<path d="M2675 60 c3 -5 11 -10 16 -10 6 0 7 5 4 10 -3 6 -11 10 -16 10 -6 0
-7 -4 -4 -10z"/>
<path d="M3216 55 c8 -19 14 -19 14 0 0 8 -4 15 -10 15 -5 0 -7 -7 -4 -15z"/>
<path d="M3759 63 c0 -5 -2 -16 -4 -25 -3 -18 21 -45 32 -35 3 4 -1 9 -9 12
-10 4 -13 15 -10 31 2 13 2 24 -2 24 -3 0 -6 -3 -7 -7z"/>
<path d="M3848 48 c3 -12 1 -19 -4 -15 -6 3 -16 2 -24 -3 -11 -7 -3 -9 23 -8
47 2 51 8 22 30 -22 17 -23 17 -17 -4z"/>
<path d="M3907 49 c7 -7 15 -10 18 -7 3 3 -2 9 -12 12 -14 6 -15 5 -6 -5z"/>
<path d="M3976 48 c3 -5 10 -6 15 -3 13 9 11 12 -6 12 -8 0 -12 -4 -9 -9z"/>
<path d="M1966 34 c-10 -25 -7 -41 4 -24 6 10 10 11 10 3 0 -7 5 -13 10 -13
15 0 12 37 -4 43 -8 3 -17 -1 -20 -9z"/>
<path d="M2655 40 c3 -5 8 -10 11 -10 2 0 4 5 4 10 0 6 -5 10 -11 10 -5 0 -7
-4 -4 -10z"/>
<path d="M2836 37 c3 -10 9 -15 12 -12 3 3 0 11 -7 18 -10 9 -11 8 -5 -6z"/>
<path d="M3194 43 c3 -6 2 -14 -4 -18 -12 -8 -13 -25 -1 -25 15 0 22 33 10 44
-9 8 -10 8 -5 -1z"/>
<path d="M3245 40 c-3 -5 -1 -10 4 -10 6 0 11 5 11 10 0 6 -2 10 -4 10 -3 0
-8 -4 -11 -10z"/>
<path d="M1660 24 c0 -8 5 -12 10 -9 6 3 10 10 10 16 0 5 -4 9 -10 9 -5 0 -10
-7 -10 -16z"/>
<path d="M1747 34 c-8 -8 3 -34 14 -34 11 0 12 27 0 34 -4 3 -11 3 -14 0z"/>
<path d="M2910 30 c0 -5 5 -10 10 -10 6 0 10 5 10 10 0 6 -4 10 -10 10 -5 0
-10 -4 -10 -10z"/>
<path d="M405 20 c-4 -6 5 -10 20 -10 15 0 24 4 20 10 -8 13 -32 13 -40 0z"/>
<path d="M1857 23 c-10 -9 -9 -23 2 -23 5 0 11 7 15 15 5 15 -5 20 -17 8z"/>
<path d="M2391 14 c0 -11 3 -14 6 -6 3 7 2 16 -1 19 -3 4 -6 -2 -5 -13z"/>
<path d="M2806 21 c-4 -7 -5 -15 -2 -18 9 -9 19 4 14 18 -4 11 -6 11 -12 0z"/>
<path d="M3045 21 c-3 -5 -1 -12 5 -16 5 -3 10 1 10 9 0 18 -6 21 -15 7z"/>
<path d="M3400 16 c0 -9 5 -16 10 -16 6 0 10 4 10 9 0 6 -4 13 -10 16 -5 3
-10 -1 -10 -9z"/>
<path d="M3928 23 c7 -3 16 -2 19 1 4 3 -2 6 -13 5 -11 0 -14 -3 -6 -6z"/>
<path d="M1905 10 c-3 -5 1 -10 9 -10 9 0 16 5 16 10 0 6 -4 10 -9 10 -6 0
-13 -4 -16 -10z"/>
<path d="M2295 10 c-3 -5 3 -10 14 -10 12 0 21 5 21 10 0 6 -6 10 -14 10 -8 0
-18 -4 -21 -10z"/>
<path d="M2720 10 c0 -5 5 -10 10 -10 6 0 10 5 10 10 0 6 -4 10 -10 10 -5 0
-10 -4 -10 -10z"/>
<path d="M3883 3 c9 -2 23 -2 30 0 6 3 -1 5 -18 5 -16 0 -22 -2 -12 -5z"/>
</g>
</svg>
